<?xml version="1.0" standalone="no"?>
  <!DOCTYPE svg PUBLIC "-//W3C//DTD SVG 1.1//EN" "http://www.w3.org/Graphics/SVG/1.1/DTD/svg11.dtd" >
  <svg>
  <metadata>
  Created by font-carrier
  </metadata>
  <defs>
  <font id="Play-Regular" horiz-adv-x="1305" vert-adv-y="1305" >
    <font-face
      
      font-family="Play"
      
      font-weight="400"
      
      font-stretch="normal"
      
      units-per-em="1000"
      
      ascent="937"
      
      descent="-220"
      
    />
      <missing-glyph />

      

      
      <glyph glyph-name="uni41" unicode="&#x41;" d="M273 649L385 649L637 0L536 0L462 197L184 197L111 0L15 0L273 649M438 264L328 557L319 557L209 264L438 264Z"  horiz-adv-x="652" vert-adv-y="1000"  />

      
      <glyph glyph-name="unic1" unicode="&#xc1;" d="M273 649L385 649L637 0L536 0L462 197L184 197L111 0L15 0L273 649M438 264L328 557L319 557L209 264L438 264M366 842L475 842L350 715L276 715L366 842Z"  horiz-adv-x="652" vert-adv-y="1000"  />

      
      <glyph glyph-name="uni0102" unicode="&#x0102;" d="M273 649L385 649L637 0L536 0L462 197L184 197L111 0L15 0L273 649M438 264L328 557L319 557L209 264L438 264M326 714Q273 714 242 748Q211 782 208 841L244 841Q257 804 275 788.50Q293 773 326 773Q359 773 377.50 789Q396 805 407 841L444 841Q440 782 409 748Q378 714 326 714Z"  horiz-adv-x="652" vert-adv-y="1000"  />

      
      <glyph glyph-name="uni1EAE" unicode="&#x1EAE;" d="M330 964L439 964L364 868L290 868L330 964M326 718Q273 718 241.50 752.50Q210 787 208 845L262 845Q268 777 326 777Q384 777 390 845L444 845Q443 788 411 753Q379 718 326 718M273 649L385 649L637 0L536 0L462 197L184 197L111 0L15 0L273 649M438 264L328 557L319 557L209 264L438 264Z"  horiz-adv-x="652" vert-adv-y="1000"  />

      
      <glyph glyph-name="uni1EB6" unicode="&#x1EB6;" d="M273 649L385 649L637 0L536 0L462 197L184 197L111 0L15 0L273 649M438 264L328 557L319 557L209 264L438 264M278-62L373-62L373-151L278-151L278-62M326 714Q273 714 242 748Q211 782 208 841L244 841Q257 804 275 788.50Q293 773 326 773Q359 773 377.50 789Q396 805 407 841L444 841Q440 782 409 748Q378 714 326 714Z"  horiz-adv-x="652" vert-adv-y="1000"  />

      
      <glyph glyph-name="uni1EB0" unicode="&#x1EB0;" d="M230 962L339 962L370 866L296 866L230 962M326 718Q273 718 241.50 752.50Q210 787 208 845L262 845Q268 777 326 777Q384 777 390 845L444 845Q443 788 411 753Q379 718 326 718M273 649L385 649L637 0L536 0L462 197L184 197L111 0L15 0L273 649M438 264L328 557L319 557L209 264L438 264Z"  horiz-adv-x="652" vert-adv-y="1000"  />

      
      <glyph glyph-name="uni1EB2" unicode="&#x1EB2;" d="M273 649L385 649L637 0L536 0L462 197L184 197L111 0L15 0L273 649M438 264L328 557L319 557L209 264L438 264M326 718Q273 718 241.50 752.50Q210 787 208 845L262 845Q268 777 326 777Q384 777 390 845L444 845Q443 788 411 753Q379 718 326 718M297 870Q297 885 302 892Q307 899 317 907Q330 916 334 926Q338 936 338 953Q338 969 328 974.50Q318 980 294 980Q280 980 268.50 977Q257 974 254 973L254 1028Q264 1032 273.50 1033.50Q283 1035 301 1035Q350 1035 373.50 1013.50Q397 992 397 956Q397 939 392 922.50Q387 906 378 899Q364 888 358 881Q352 874 352 861L297 861L297 870Z"  horiz-adv-x="652" vert-adv-y="1000"  />

      
      <glyph glyph-name="uni1EB4" unicode="&#x1EB4;" d="M273 649L385 649L637 0L536 0L462 197L184 197L111 0L15 0L273 649M438 264L328 557L319 557L209 264L438 264M326 718Q273 718 241.50 752.50Q210 787 208 845L262 845Q268 777 326 777Q384 777 390 845L444 845Q443 788 411 753Q379 718 326 718M199 897Q206 924 227 944.50Q248 965 281 965Q304 965 343 950Q380 935 397 935Q412 935 425 943Q438 951 444 967L475 949Q467 921 444 899Q421 877 388 877Q365 877 323 894Q284 910 272 910Q243 910 230 877L199 897Z"  horiz-adv-x="652" vert-adv-y="1000"  />

      
      <glyph glyph-name="unic2" unicode="&#xc2;" d="M273 649L385 649L637 0L536 0L462 197L184 197L111 0L15 0L273 649M438 264L328 557L319 557L209 264L438 264M273 832L380 832L446 705L388 705L326 792L263 705L205 705L273 832Z"  horiz-adv-x="652" vert-adv-y="1000"  />

      
      <glyph glyph-name="uni1EA4" unicode="&#x1EA4;" d="M470 887L579 887L504 791L430 791L470 887M273 845L380 845L446 718L388 718L326 805L263 718L205 718L273 845M273 649L385 649L637 0L536 0L462 197L184 197L111 0L15 0L273 649M438 264L328 557L319 557L209 264L438 264Z"  horiz-adv-x="652" vert-adv-y="1000"  />

      
      <glyph glyph-name="uni1EAC" unicode="&#x1EAC;" d="M273 649L385 649L637 0L536 0L462 197L184 197L111 0L15 0L273 649M438 264L328 557L319 557L209 264L438 264M278-62L373-62L373-151L278-151L278-62M273 832L380 832L446 705L388 705L326 792L263 705L205 705L273 832Z"  horiz-adv-x="652" vert-adv-y="1000"  />

      
      <glyph glyph-name="uni1EA6" unicode="&#x1EA6;" d="M396 907L505 907L536 811L462 811L396 907M273 845L380 845L446 718L388 718L326 805L263 718L205 718L273 845M273 649L385 649L637 0L536 0L462 197L184 197L111 0L15 0L273 649M438 264L328 557L319 557L209 264L438 264Z"  horiz-adv-x="652" vert-adv-y="1000"  />

      
      <glyph glyph-name="uni1EA8" unicode="&#x1EA8;" d="M273 649L385 649L637 0L536 0L462 197L184 197L111 0L15 0L273 649M438 264L328 557L319 557L209 264L438 264M273 845L380 845L446 718L388 718L326 805L263 718L205 718L273 845M444 802Q444 817 449 824Q454 831 464 839Q477 848 481 858Q485 868 485 885Q485 901 475 906.50Q465 912 441 912Q427 912 415.50 909Q404 906 401 905L401 960Q411 964 420.50 965.50Q430 967 448 967Q497 967 520.50 945.50Q544 924 544 888Q544 871 539 854.50Q534 838 525 831Q511 820 505 813Q499 806 499 793L444 793L444 802Z"  horiz-adv-x="652" vert-adv-y="1000"  />

      
      <glyph glyph-name="uni1EAA" unicode="&#x1EAA;" d="M273 649L385 649L637 0L536 0L462 197L184 197L111 0L15 0L273 649M438 264L328 557L319 557L209 264L438 264M273 845L380 845L446 718L388 718L326 805L263 718L205 718L273 845M189 889Q196 916 217 936.50Q238 957 271 957Q294 957 333 942Q370 927 387 927Q402 927 415 935Q428 943 434 959L465 941Q457 913 434 891Q411 869 378 869Q355 869 313 886Q274 902 262 902Q233 902 220 869L189 889Z"  horiz-adv-x="652" vert-adv-y="1000"  />

      
      <glyph glyph-name="unic4" unicode="&#xc4;" d="M190 809L280 809L280 715L190 715L190 809M360 809L450 809L450 715L360 715L360 809M273 649L385 649L637 0L536 0L462 197L184 197L111 0L15 0L273 649M438 264L328 557L319 557L209 264L438 264Z"  horiz-adv-x="652" vert-adv-y="1000"  />

      
      <glyph glyph-name="uni1EA0" unicode="&#x1EA0;" d="M273 649L385 649L637 0L536 0L462 197L184 197L111 0L15 0L273 649M438 264L328 557L319 557L209 264L438 264M278-62L373-62L373-151L278-151L278-62Z"  horiz-adv-x="652" vert-adv-y="1000"  />

      
      <glyph glyph-name="unic0" unicode="&#xc0;" d="M273 649L385 649L637 0L536 0L462 197L184 197L111 0L15 0L273 649M438 264L328 557L319 557L209 264L438 264M162 839L271 839L361 712L287 712L162 839Z"  horiz-adv-x="652" vert-adv-y="1000"  />

      
      <glyph glyph-name="uni1EA2" unicode="&#x1EA2;" d="M273 649L385 649L637 0L536 0L462 197L184 197L111 0L15 0L273 649M438 264L328 557L319 557L209 264L438 264M297 746Q297 761 302 768Q307 775 317 783Q330 792 334 802Q338 812 338 829Q338 845 328 850.50Q318 856 294 856Q280 856 268.50 853Q257 850 254 849L254 904Q264 908 273.50 909.50Q283 911 301 911Q350 911 373.50 889.50Q397 868 397 832Q397 815 392 798.50Q387 782 378 775Q364 764 358 757Q352 750 352 737L297 737L297 746Z"  horiz-adv-x="652" vert-adv-y="1000"  />

      
      <glyph glyph-name="uni0100" unicode="&#x0100;" d="M215 798L433 798L433 739L215 739L215 798M273 649L385 649L637 0L536 0L462 197L184 197L111 0L15 0L273 649M438 264L328 557L319 557L209 264L438 264Z"  horiz-adv-x="652" vert-adv-y="1000"  />

      
      <glyph glyph-name="uni0104" unicode="&#x0104;" d="M614-186Q563-186 539-167Q515-148 515-106Q515-65 536 0L462 197L184 197L111 0L15 0L273 649L385 649L637 0Q594-52 594-97Q594-130 633-130Q643-130 664-123L664-176Q644-186 614-186M438 264L328 557L319 557L209 264L438 264Z"  horiz-adv-x="652" vert-adv-y="1000"  />

      
      <glyph glyph-name="unic5" unicode="&#xc5;" d="M242 560Q185 577 185 646L185 659Q185 712 211 738Q221 748 241 754Q261 760 280 761Q291 762 326 762Q360 762 375.50 761Q391 760 410 755Q430 749 441 738.50Q452 728 460 708Q467 690 467 659L467 646Q467 582 415 561L637 0L536 0L462 198L185 198L111 0L15 0L242 560M326 596Q356 596 368.50 598.50Q381 601 390 611Q400 621 400 643L400 657Q400 689 384.50 699Q369 709 326 709Q283 709 267.50 699Q252 689 252 657L252 643Q252 614 268 605Q284 596 326 596M438 264L332 545L315 545L209 264L438 264Z"  horiz-adv-x="652" vert-adv-y="1000"  />

      
      <glyph glyph-name="unic3" unicode="&#xc3;" d="M273 649L385 649L637 0L536 0L462 197L184 197L111 0L15 0L273 649M438 264L328 557L319 557L209 264L438 264M167 719Q168 765 196.50 786.50Q225 808 267 808Q287 808 310 801.50Q333 795 337 794Q370 783 384 783Q417 783 417 816L482 815Q481 762 455.50 740.50Q430 719 384 719Q375 719 360.50 723.50Q346 728 331 733Q314 738 296.50 743Q279 748 267 748Q232 748 231 719L167 719Z"  horiz-adv-x="652" vert-adv-y="1000"  />

      
      <glyph glyph-name="unic6" unicode="&#xc6;" d="M358 649L863 649L863 581L554 581L554 369L830 369L830 301L554 301L554 68L873 68L873 0L457 0L457 197L211 197L109 0L0 0L358 649M457 264L457 581L409 581L245 264L457 264Z"  horiz-adv-x="923" vert-adv-y="1000"  />

      
      <glyph glyph-name="uni42" unicode="&#x42;" d="M84 649L316 649Q399 649 448 632Q493 616 508.50 592Q524 568 524 526L524 439Q524 400 502 378.50Q480 357 435 347L435 343Q488 334 520.50 306.50Q553 279 553 238L553 129Q553 58 500 29Q447 0 323 0L84 0L84 649M319 365Q380 365 406.50 383.50Q433 402 433 442L433 518Q433 555 406 570Q379 585 316 585L181 585L181 365L319 365M323 67Q396 67 426 82Q456 97 456 133L456 231Q456 257 445.50 272.50Q435 288 413 295Q391 301 374 302.50Q357 304 323 304L181 304L181 67L323 67Z"  horiz-adv-x="613" vert-adv-y="1000"  />

      
      <glyph glyph-name="uni43" unicode="&#x43;" d="M337-10Q64-10 64 166L64 474Q64 660 337 660Q430 660 515 641L515 569Q419 593 339 593Q300 593 271 588.50Q242 584 215 573Q157 548 157 475L157 171Q157 59 343 59Q423 59 519 83L519 9Q434-10 337-10Z"  horiz-adv-x="564" vert-adv-y="1000"  />

      
      <glyph glyph-name="uni0106" unicode="&#x0106;" d="M355 830L464 830L339 703L265 703L355 830M337-10Q64-10 64 166L64 474Q64 660 337 660Q430 660 515 641L515 569Q419 593 339 593Q300 593 271 588.50Q242 584 215 573Q157 548 157 475L157 171Q157 59 343 59Q423 59 519 83L519 9Q434-10 337-10Z"  horiz-adv-x="564" vert-adv-y="1000"  />

      
      <glyph glyph-name="uni010C" unicode="&#x010C;" d="M183 830L241 830L304 743L366 830L424 830L358 703L251 703L183 830M337-10Q64-10 64 166L64 474Q64 660 337 660Q430 660 515 641L515 569Q419 593 339 593Q300 593 271 588.50Q242 584 215 573Q157 548 157 475L157 171Q157 59 343 59Q423 59 519 83L519 9Q434-10 337-10Z"  horiz-adv-x="564" vert-adv-y="1000"  />

      
      <glyph glyph-name="unic7" unicode="&#xc7;" d="M318-220Q268-220 237-201L258-156Q289-173 316-173Q363-173 363-133Q363-114 341-103Q319-92 285-92L252-92Q273-57 297-9Q64 5 64 166L64 474Q64 660 337 660Q430 660 515 641L515 569Q419 593 339 593Q300 593 271 588.50Q242 584 215 573Q157 548 157 475L157 171Q157 59 343 59Q423 59 519 83L519 9Q436-9 359-10L338-52Q377-53 404-73.50Q431-94 431-130Q431-172 398.50-196Q366-220 318-220Z"  horiz-adv-x="564" vert-adv-y="1000"  />

      
      <glyph glyph-name="uni0108" unicode="&#x0108;" d="M279 830L386 830L452 703L394 703L332 790L269 703L211 703L279 830M337-10Q64-10 64 166L64 474Q64 660 337 660Q430 660 515 641L515 569Q419 593 339 593Q300 593 271 588.50Q242 584 215 573Q157 548 157 475L157 171Q157 59 343 59Q423 59 519 83L519 9Q434-10 337-10Z"  horiz-adv-x="564" vert-adv-y="1000"  />

      
      <glyph glyph-name="uni010A" unicode="&#x010A;" d="M290 830L380 830L380 732L290 732L290 830M337-10Q64-10 64 166L64 474Q64 660 337 660Q430 660 515 641L515 569Q419 593 339 593Q300 593 271 588.50Q242 584 215 573Q157 548 157 475L157 171Q157 59 343 59Q423 59 519 83L519 9Q434-10 337-10Z"  horiz-adv-x="564" vert-adv-y="1000"  />

      
      <glyph glyph-name="uni44" unicode="&#x44;" d="M84 649L342 649Q615 649 615 463L615 176Q615 0 343 0L84 0L84 649M336 66Q522 66 522 178L522 464Q522 500 507 525Q492 550 465 562Q438 573 409 577.50Q380 582 341 582L181 582L181 66L336 66Z"  horiz-adv-x="679" vert-adv-y="1000"  />

      
      <glyph glyph-name="unid0" unicode="&#xd0;" d="M84 301L20 301L20 369L84 369L84 649L342 649Q615 649 615 463L615 176Q615 0 343 0L84 0L84 301M336 66Q522 66 522 178L522 464Q522 500 507 525Q492 550 465 562Q438 573 409 577.50Q380 582 341 582L181 582L181 369L287 369L287 301L181 301L181 66L336 66Z"  horiz-adv-x="679" vert-adv-y="1000"  />

      
      <glyph glyph-name="uni010E" unicode="&#x010E;" d="M219 845L277 845L340 758L402 845L460 845L394 718L287 718L219 845M84 649L342 649Q615 649 615 463L615 176Q615 0 343 0L84 0L84 649M336 66Q522 66 522 178L522 464Q522 500 507 525Q492 550 465 562Q438 573 409 577.50Q380 582 341 582L181 582L181 66L336 66Z"  horiz-adv-x="679" vert-adv-y="1000"  />

      
      <glyph glyph-name="uni0110" unicode="&#x0110;" d="M84 301L20 301L20 369L84 369L84 649L342 649Q615 649 615 463L615 176Q615 0 343 0L84 0L84 301M336 66Q522 66 522 178L522 464Q522 500 507 525Q492 550 465 562Q438 573 409 577.50Q380 582 341 582L181 582L181 369L287 369L287 301L181 301L181 66L336 66Z"  horiz-adv-x="679" vert-adv-y="1000"  />

      
      <glyph glyph-name="uni45" unicode="&#x45;" d="M84 649L520 649L520 581L181 581L181 369L487 369L487 301L181 301L181 68L530 68L530 0L84 0L84 649Z"  horiz-adv-x="580" vert-adv-y="1000"  />

      
      <glyph glyph-name="unic9" unicode="&#xc9;" d="M84 649L520 649L520 581L181 581L181 369L487 369L487 301L181 301L181 68L530 68L530 0L84 0L84 649M330 842L439 842L314 715L240 715L330 842Z"  horiz-adv-x="580" vert-adv-y="1000"  />

      
      <glyph glyph-name="uni0114" unicode="&#x0114;" d="M305 703Q252 703 221 737Q190 771 187 830L223 830Q236 793 254 777.50Q272 762 305 762Q338 762 356.50 778Q375 794 386 830L423 830Q419 771 388 737Q357 703 305 703M84 649L520 649L520 581L181 581L181 369L487 369L487 301L181 301L181 68L530 68L530 0L84 0L84 649Z"  horiz-adv-x="580" vert-adv-y="1000"  />

      
      <glyph glyph-name="uni011A" unicode="&#x011A;" d="M181 830L239 830L302 743L364 830L422 830L356 703L249 703L181 830M84 649L520 649L520 581L181 581L181 369L487 369L487 301L181 301L181 68L530 68L530 0L84 0L84 649Z"  horiz-adv-x="580" vert-adv-y="1000"  />

      
      <glyph glyph-name="unica" unicode="&#xca;" d="M84 649L520 649L520 581L181 581L181 369L487 369L487 301L181 301L181 68L530 68L530 0L84 0L84 649M237 832L344 832L410 705L352 705L290 792L227 705L169 705L237 832Z"  horiz-adv-x="580" vert-adv-y="1000"  />

      
      <glyph glyph-name="uni1EBE" unicode="&#x1EBE;" d="M434 887L543 887L468 791L394 791L434 887M237 845L344 845L410 718L352 718L290 805L227 718L169 718L237 845M84 649L520 649L520 581L181 581L181 369L487 369L487 301L181 301L181 68L530 68L530 0L84 0L84 649Z"  horiz-adv-x="580" vert-adv-y="1000"  />

      
      <glyph glyph-name="uni1EC6" unicode="&#x1EC6;" d="M84 649L520 649L520 581L181 581L181 369L487 369L487 301L181 301L181 68L530 68L530 0L84 0L84 649M242-62L337-62L337-151L242-151L242-62M237 832L344 832L410 705L352 705L290 792L227 705L169 705L237 832Z"  horiz-adv-x="580" vert-adv-y="1000"  />

      
      <glyph glyph-name="uni1EC0" unicode="&#x1EC0;" d="M360 907L469 907L500 811L426 811L360 907M237 845L344 845L410 718L352 718L290 805L227 718L169 718L237 845M84 649L520 649L520 581L181 581L181 369L487 369L487 301L181 301L181 68L530 68L530 0L84 0L84 649Z"  horiz-adv-x="580" vert-adv-y="1000"  />

      
      <glyph glyph-name="uni1EC2" unicode="&#x1EC2;" d="M84 649L520 649L520 581L181 581L181 369L487 369L487 301L181 301L181 68L530 68L530 0L84 0L84 649M237 845L344 845L410 718L352 718L290 805L227 718L169 718L237 845M408 802Q408 817 413 824Q418 831 428 839Q441 848 445 858Q449 868 449 885Q449 901 439 906.50Q429 912 405 912Q391 912 379.50 909Q368 906 365 905L365 960Q375 964 384.50 965.50Q394 967 412 967Q461 967 484.50 945.50Q508 924 508 888Q508 871 503 854.50Q498 838 489 831Q475 820 469 813Q463 806 463 793L408 793L408 802Z"  horiz-adv-x="580" vert-adv-y="1000"  />

      
      <glyph glyph-name="uni1EC4" unicode="&#x1EC4;" d="M84 649L520 649L520 581L181 581L181 369L487 369L487 301L181 301L181 68L530 68L530 0L84 0L84 649M237 845L344 845L410 718L352 718L290 805L227 718L169 718L237 845M153 889Q160 916 181 936.50Q202 957 235 957Q258 957 297 942Q334 927 351 927Q366 927 379 935Q392 943 398 959L429 941Q421 913 398 891Q375 869 342 869Q319 869 277 886Q238 902 226 902Q197 902 184 869L153 889Z"  horiz-adv-x="580" vert-adv-y="1000"  />

      
      <glyph glyph-name="unicb" unicode="&#xcb;" d="M176 809L266 809L266 715L176 715L176 809M346 809L436 809L436 715L346 715L346 809M84 649L520 649L520 581L181 581L181 369L487 369L487 301L181 301L181 68L530 68L530 0L84 0L84 649Z"  horiz-adv-x="580" vert-adv-y="1000"  />

      
      <glyph glyph-name="uni0116" unicode="&#x0116;" d="M256 830L346 830L346 732L256 732L256 830M84 649L520 649L520 581L181 581L181 369L487 369L487 301L181 301L181 68L530 68L530 0L84 0L84 649Z"  horiz-adv-x="580" vert-adv-y="1000"  />

      
      <glyph glyph-name="uni1EB8" unicode="&#x1EB8;" d="M84 649L520 649L520 581L181 581L181 369L487 369L487 301L181 301L181 68L530 68L530 0L84 0L84 649M242-62L337-62L337-151L242-151L242-62Z"  horiz-adv-x="580" vert-adv-y="1000"  />

      
      <glyph glyph-name="unic8" unicode="&#xc8;" d="M84 649L520 649L520 581L181 581L181 369L487 369L487 301L181 301L181 68L530 68L530 0L84 0L84 649M126 839L235 839L325 712L251 712L126 839Z"  horiz-adv-x="580" vert-adv-y="1000"  />

      
      <glyph glyph-name="uni1EBA" unicode="&#x1EBA;" d="M84 649L520 649L520 581L181 581L181 369L487 369L487 301L181 301L181 68L530 68L530 0L84 0L84 649M261 746Q261 761 266 768Q271 775 281 783Q294 792 298 802Q302 812 302 829Q302 845 292 850.50Q282 856 258 856Q244 856 232.50 853Q221 850 218 849L218 904Q228 908 237.50 909.50Q247 911 265 911Q314 911 337.50 889.50Q361 868 361 832Q361 815 356 798.50Q351 782 342 775Q328 764 322 757Q316 750 316 737L261 737L261 746Z"  horiz-adv-x="580" vert-adv-y="1000"  />

      
      <glyph glyph-name="uni0112" unicode="&#x0112;" d="M193 798L411 798L411 739L193 739L193 798M84 649L520 649L520 581L181 581L181 369L487 369L487 301L181 301L181 68L530 68L530 0L84 0L84 649Z"  horiz-adv-x="580" vert-adv-y="1000"  />

      
      <glyph glyph-name="uni0118" unicode="&#x0118;" d="M437-186Q387-186 362.50-167Q338-148 338-106Q338-56 374 0L84 0L84 649L520 649L520 581L181 581L181 369L487 369L487 301L181 301L181 68L530 68L530 0L449 0Q417-50 417-97Q417-130 456-130Q466-130 487-123L487-176Q467-186 437-186Z"  horiz-adv-x="580" vert-adv-y="1000"  />

      
      <glyph glyph-name="uni1EBC" unicode="&#x1EBC;" d="M84 649L520 649L520 581L181 581L181 369L487 369L487 301L181 301L181 68L530 68L530 0L84 0L84 649M131 719Q132 765 160.50 786.50Q189 808 231 808Q251 808 274 801.50Q297 795 301 794Q334 783 348 783Q381 783 381 816L446 815Q445 762 419.50 740.50Q394 719 348 719Q339 719 324.50 723.50Q310 728 295 733Q278 738 260.50 743Q243 748 231 748Q196 748 195 719L131 719Z"  horiz-adv-x="580" vert-adv-y="1000"  />

      
      <glyph glyph-name="uni46" unicode="&#x46;" d="M84 649L530 649L530 581L181 581L181 369L497 369L497 301L181 301L181 0L84 0L84 649Z"  horiz-adv-x="560" vert-adv-y="1000"  />

      
      <glyph glyph-name="uni47" unicode="&#x47;" d="M363-10Q317-10 281.50-6Q246-2 207 9Q163 21 133 39.50Q103 58 84 90Q64 124 64 166L64 473Q64 529 93 569Q122 609 173 627Q222 644 266.50 651.50Q311 659 363 659Q487 659 587 643L587 568Q549 577 478.50 584.50Q408 592 365 592Q160 592 160 474L160 168Q160 136 179.50 112Q199 88 233 77Q265 65 297 60.50Q329 56 369 56Q436 56 512 74L512 301L360 301L360 369L602 369L602 20Q472-10 363-10Z"  horiz-adv-x="666" vert-adv-y="1000"  />

      
      <glyph glyph-name="uni011E" unicode="&#x011E;" d="M333 718Q280 718 248.50 752.50Q217 787 215 845L269 845Q275 777 333 777Q391 777 397 845L451 845Q450 788 418 753Q386 718 333 718M363-10Q317-10 281.50-6Q246-2 207 9Q163 21 133 39.50Q103 58 84 90Q64 124 64 166L64 473Q64 529 93 569Q122 609 173 627Q222 644 266.50 651.50Q311 659 363 659Q487 659 587 643L587 568Q549 577 478.50 584.50Q408 592 365 592Q160 592 160 474L160 168Q160 136 179.50 112Q199 88 233 77Q265 65 297 60.50Q329 56 369 56Q436 56 512 74L512 301L360 301L360 369L602 369L602 20Q472-10 363-10Z"  horiz-adv-x="666" vert-adv-y="1000"  />

      
      <glyph glyph-name="uni011C" unicode="&#x011C;" d="M280 845L387 845L453 718L395 718L333 805L270 718L212 718L280 845M363-10Q317-10 281.50-6Q246-2 207 9Q163 21 133 39.50Q103 58 84 90Q64 124 64 166L64 473Q64 529 93 569Q122 609 173 627Q222 644 266.50 651.50Q311 659 363 659Q487 659 587 643L587 568Q549 577 478.50 584.50Q408 592 365 592Q160 592 160 474L160 168Q160 136 179.50 112Q199 88 233 77Q265 65 297 60.50Q329 56 369 56Q436 56 512 74L512 301L360 301L360 369L602 369L602 20Q472-10 363-10Z"  horiz-adv-x="666" vert-adv-y="1000"  />

      
      <glyph glyph-name="uni0122" unicode="&#x0122;" d="M363-10Q317-10 281.50-6Q246-2 207 9Q163 21 133 39.50Q103 58 84 90Q64 124 64 166L64 473Q64 529 93 569Q122 609 173 627Q222 644 266.50 651.50Q311 659 363 659Q487 659 587 643L587 568Q549 577 478.50 584.50Q408 592 365 592Q160 592 160 474L160 168Q160 136 179.50 112Q199 88 233 77Q265 65 297 60.50Q329 56 369 56Q436 56 512 74L512 301L360 301L360 369L602 369L602 20Q472-10 363-10M309-40L403-40L320-190L263-190L309-40Z"  horiz-adv-x="666" vert-adv-y="1000"  />

      
      <glyph glyph-name="uni0120" unicode="&#x0120;" d="M288 831L378 831L378 733L288 733L288 831M363-10Q317-10 281.50-6Q246-2 207 9Q163 21 133 39.50Q103 58 84 90Q64 124 64 166L64 473Q64 529 93 569Q122 609 173 627Q222 644 266.50 651.50Q311 659 363 659Q487 659 587 643L587 568Q549 577 478.50 584.50Q408 592 365 592Q160 592 160 474L160 168Q160 136 179.50 112Q199 88 233 77Q265 65 297 60.50Q329 56 369 56Q436 56 512 74L512 301L360 301L360 369L602 369L602 20Q472-10 363-10Z"  horiz-adv-x="666" vert-adv-y="1000"  />

      
      <glyph glyph-name="uni48" unicode="&#x48;" d="M84 649L181 649L181 369L526 369L526 649L623 649L623 0L526 0L526 301L181 301L181 0L84 0L84 649Z"  horiz-adv-x="707" vert-adv-y="1000"  />

      
      <glyph glyph-name="uni0126" unicode="&#x0126;" d="M84 649L181 649L181 469L526 469L526 649L623 649L623 0L526 0L526 241L181 241L181 0L84 0L84 649M526 309L526 401L181 401L181 309L526 309Z"  horiz-adv-x="707" vert-adv-y="1000"  />

      
      <glyph glyph-name="uni0124" unicode="&#x0124;" d="M298 830L405 830L471 703L413 703L351 790L288 703L230 703L298 830M84 649L181 649L181 369L526 369L526 649L623 649L623 0L526 0L526 301L181 301L181 0L84 0L84 649Z"  horiz-adv-x="707" vert-adv-y="1000"  />

      
      <glyph glyph-name="uni49" unicode="&#x49;" d="M84 649L181 649L181 0L84 0L84 649Z"  horiz-adv-x="265" vert-adv-y="1000"  />

      
      <glyph glyph-name="uni0132" unicode="&#x0132;" d="M84 649L181 649L181 0L84 0L84 649M337-5Q320-5 218 1L218 66L245 63Q293 55 325 55Q365 55 384.50 61Q404 67 412 84.50Q420 102 420 139L420 649L517 649L517 143Q517 82 499.50 50Q482 18 444 6.50Q406-5 337-5Z"  horiz-adv-x="601" vert-adv-y="1000"  />

      
      <glyph glyph-name="unicd" unicode="&#xcd;" d="M84 649L181 649L181 0L84 0L84 649M173 842L282 842L157 715L83 715L173 842Z"  horiz-adv-x="265" vert-adv-y="1000"  />

      
      <glyph glyph-name="uni012C" unicode="&#x012C;" d="M133 718Q80 718 48.50 752.50Q17 787 15 845L69 845Q75 777 133 777Q191 777 197 845L251 845Q250 788 218 753Q186 718 133 718M84 649L181 649L181 0L84 0L84 649Z"  horiz-adv-x="265" vert-adv-y="1000"  />

      
      <glyph glyph-name="unice" unicode="&#xce;" d="M79 830L186 830L252 703L194 703L132 790L69 703L11 703L79 830M84 649L181 649L181 0L84 0L84 649Z"  horiz-adv-x="265" vert-adv-y="1000"  />

      
      <glyph glyph-name="unicf" unicode="&#xcf;" d="M4 809L94 809L94 715L4 715L4 809M174 809L264 809L264 715L174 715L174 809M84 649L181 649L181 0L84 0L84 649Z"  horiz-adv-x="265" vert-adv-y="1000"  />

      
      <glyph glyph-name="uni0130" unicode="&#x0130;" d="M87 811L177 811L177 713L87 713L87 811M84 649L181 649L181 0L84 0L84 649Z"  horiz-adv-x="265" vert-adv-y="1000"  />

      
      <glyph glyph-name="uni1ECA" unicode="&#x1ECA;" d="M84 649L181 649L181 0L84 0L84 649M85-62L180-62L180-151L85-151L85-62Z"  horiz-adv-x="265" vert-adv-y="1000"  />

      
      <glyph glyph-name="unicc" unicode="&#xcc;" d="M84 649L181 649L181 0L84 0L84 649M-31 839L78 839L168 712L94 712L-31 839Z"  horiz-adv-x="265" vert-adv-y="1000"  />

      
      <glyph glyph-name="uni1EC8" unicode="&#x1EC8;" d="M84 649L181 649L181 0L84 0L84 649M104 746Q104 761 109 768Q114 775 124 783Q137 792 141 802Q145 812 145 829Q145 845 135 850.50Q125 856 101 856Q87 856 75.50 853Q64 850 61 849L61 904Q71 908 80.50 909.50Q90 911 108 911Q157 911 180.50 889.50Q204 868 204 832Q204 815 199 798.50Q194 782 185 775Q171 764 165 757Q159 750 159 737L104 737L104 746Z"  horiz-adv-x="265" vert-adv-y="1000"  />

      
      <glyph glyph-name="uni012A" unicode="&#x012A;" d="M24 798L242 798L242 739L24 739L24 798M84 649L181 649L181 0L84 0L84 649Z"  horiz-adv-x="265" vert-adv-y="1000"  />

      
      <glyph glyph-name="uni012E" unicode="&#x012E;" d="M158-186Q107-186 83-167Q59-148 59-106Q59-59 84 0L84 649L181 649L181 0Q138-46 138-97Q138-130 177-130Q187-130 208-123L208-176Q188-186 158-186Z"  horiz-adv-x="265" vert-adv-y="1000"  />

      
      <glyph glyph-name="uni0128" unicode="&#x0128;" d="M84 649L181 649L181 0L84 0L84 649M-26 719Q-25 765 3.50 786.50Q32 808 74 808Q94 808 117 801.50Q140 795 144 794Q177 783 191 783Q224 783 224 816L289 815Q288 762 262.50 740.50Q237 719 191 719Q182 719 167.50 723.50Q153 728 138 733Q121 738 103.50 743Q86 748 74 748Q39 748 38 719L-26 719Z"  horiz-adv-x="265" vert-adv-y="1000"  />

      
      <glyph glyph-name="uni4a" unicode="&#x4a;" d="M139-10Q59-10 20 1L20 66Q80 50 127 50Q166 50 186 57Q206 64 214 82.50Q222 101 222 139L222 649L319 649L319 143Q319 81 301 48.50Q283 16 245 3Q207-10 139-10Z"  horiz-adv-x="403" vert-adv-y="1000"  />

      
      <glyph glyph-name="uni0134" unicode="&#x0134;" d="M217 839L324 839L390 712L332 712L270 799L207 712L149 712L217 839M139-10Q59-10 20 1L20 66Q80 50 127 50Q166 50 186 57Q206 64 214 82.50Q222 101 222 139L222 649L319 649L319 143Q319 81 301 48.50Q283 16 245 3Q207-10 139-10Z"  horiz-adv-x="403" vert-adv-y="1000"  />

      
      <glyph glyph-name="uni4b" unicode="&#x4b;" d="M84 649L181 649L181 0L84 0L84 649M183 345L473 649L590 649L298 349L619 0L493 0L183 345Z"  horiz-adv-x="609" vert-adv-y="1000"  />

      
      <glyph glyph-name="uni0136" unicode="&#x0136;" d="M84 649L181 649L181 0L84 0L84 649M183 345L473 649L590 649L298 349L619 0L493 0L183 345M290-40L391-40L308-190L244-190L290-40Z"  horiz-adv-x="609" vert-adv-y="1000"  />

      
      <glyph glyph-name="uni4c" unicode="&#x4c;" d="M84 649L181 649L181 68L500 68L500 0L84 0L84 649Z"  horiz-adv-x="520" vert-adv-y="1000"  />

      
      <glyph glyph-name="uni0139" unicode="&#x0139;" d="M184 830L293 830L168 703L94 703L184 830M84 649L181 649L181 68L500 68L500 0L84 0L84 649Z"  horiz-adv-x="520" vert-adv-y="1000"  />

      
      <glyph glyph-name="uni013D" unicode="&#x013D;" d="M84 649L181 649L181 68L500 68L500 0L84 0L84 649M288 649L389 649L306 499L242 499L288 649Z"  horiz-adv-x="520" vert-adv-y="1000"  />

      
      <glyph glyph-name="uni013B" unicode="&#x013B;" d="M84 649L181 649L181 68L500 68L500 0L84 0L84 649M260-40L361-40L278-190L214-190L260-40Z"  horiz-adv-x="520" vert-adv-y="1000"  />

      
      <glyph glyph-name="uni013F" unicode="&#x013F;" d="M84 649L181 649L181 68L500 68L500 0L84 0L84 649M240 381L330 381L330 283L240 283L240 381Z"  horiz-adv-x="520" vert-adv-y="1000"  />

      
      <glyph glyph-name="uni0141" unicode="&#x0141;" d="M104 283L20 259L20 330L104 354L104 649L201 649L201 382L312 414L312 343L201 311L201 68L520 68L520 0L104 0L104 283Z"  horiz-adv-x="540" vert-adv-y="1000"  />

      
      <glyph glyph-name="uni4d" unicode="&#x4d;" d="M84 649L229 649L437 109L440 108L637 649L777 649L777 0L692 0L692 549L687 549L478 0L391 0L176 549L171 549L171 0L84 0L84 649Z"  horiz-adv-x="861" vert-adv-y="1000"  />

      
      <glyph glyph-name="uni4e" unicode="&#x4e;" d="M84 649L201 649L554 113L554 649L639 649L639 0L522 0L169 545L169 0L84 0L84 649Z"  horiz-adv-x="723" vert-adv-y="1000"  />

      
      <glyph glyph-name="uni0143" unicode="&#x0143;" d="M370 830L479 830L354 703L280 703L370 830M84 649L201 649L554 113L554 649L639 649L639 0L522 0L169 545L169 0L84 0L84 649Z"  horiz-adv-x="723" vert-adv-y="1000"  />

      
      <glyph glyph-name="uni0147" unicode="&#x0147;" d="M258 830L316 830L379 743L441 830L499 830L433 703L326 703L258 830M84 649L201 649L554 113L554 649L639 649L639 0L522 0L169 545L169 0L84 0L84 649Z"  horiz-adv-x="723" vert-adv-y="1000"  />

      
      <glyph glyph-name="uni0145" unicode="&#x0145;" d="M84 649L201 649L554 113L554 649L639 649L639 0L522 0L169 545L169 0L84 0L84 649M333-40L434-40L351-190L287-190L333-40Z"  horiz-adv-x="723" vert-adv-y="1000"  />

      
      <glyph glyph-name="uni014A" unicode="&#x014A;" d="M455-126Q508-126 529-102.50Q550-79 550-36L169 545L169 0L84 0L84 649L201 649L554 113L554 649L639 649L639-41Q639-93 625-125Q611-157 576.50-173.50Q542-190 481-190L455-190L455-126Z"  horiz-adv-x="723" vert-adv-y="1000"  />

      
      <glyph glyph-name="unid1" unicode="&#xd1;" d="M234 764Q258 793 299 793Q322 793 364 776Q406 759 424 759Q445 759 459 769Q473 779 489 802L489 733Q467 694 424 694Q398 694 358 712Q317 730 299 730Q260 730 234 691L234 764M84 649L201 649L554 113L554 649L639 649L639 0L522 0L169 545L169 0L84 0L84 649Z"  horiz-adv-x="723" vert-adv-y="1000"  />

      
      <glyph glyph-name="uni4f" unicode="&#x4f;" d="M338-10Q66-10 66 166L66 473Q66 659 338 659Q613 659 613 474L613 166Q613 72 537 31Q461-10 338-10M340 55Q519 55 519 167L519 476Q519 596 339 596Q252 596 205.50 569Q159 542 159 476L159 167Q159 55 340 55Z"  horiz-adv-x="679" vert-adv-y="1000"  />

      
      <glyph glyph-name="unid3" unicode="&#xd3;" d="M338-10Q66-10 66 166L66 473Q66 659 338 659Q613 659 613 474L613 166Q613 72 537 31Q461-10 338-10M340 55Q519 55 519 167L519 476Q519 596 339 596Q252 596 205.50 569Q159 542 159 476L159 167Q159 55 340 55M380 842L489 842L364 715L290 715L380 842Z"  horiz-adv-x="679" vert-adv-y="1000"  />

      
      <glyph glyph-name="uni014E" unicode="&#x014E;" d="M339 718Q286 718 254.50 752.50Q223 787 221 845L275 845Q281 777 339 777Q397 777 403 845L457 845Q456 788 424 753Q392 718 339 718M338-10Q66-10 66 166L66 473Q66 659 338 659Q613 659 613 474L613 166Q613 114 588 77Q563 40 518 22Q475 5 432.50-2.50Q390-10 338-10M340 55Q519 55 519 167L519 476Q519 596 339 596Q299 596 270.50 591.50Q242 587 216 575Q159 548 159 476L159 167Q159 55 340 55Z"  horiz-adv-x="679" vert-adv-y="1000"  />

      
      <glyph glyph-name="unid4" unicode="&#xd4;" d="M338-10Q66-10 66 166L66 473Q66 659 338 659Q613 659 613 474L613 166Q613 72 537 31Q461-10 338-10M340 55Q519 55 519 167L519 476Q519 596 339 596Q252 596 205.50 569Q159 542 159 476L159 167Q159 55 340 55M287 832L394 832L460 705L402 705L340 792L277 705L219 705L287 832Z"  horiz-adv-x="679" vert-adv-y="1000"  />

      
      <glyph glyph-name="uni1ED0" unicode="&#x1ED0;" d="M484 887L593 887L518 791L444 791L484 887M287 845L394 845L460 718L402 718L340 805L277 718L219 718L287 845M338-10Q66-10 66 166L66 473Q66 659 338 659Q613 659 613 474L613 166Q613 72 537 31Q461-10 338-10M340 55Q519 55 519 167L519 476Q519 596 339 596Q252 596 205.50 569Q159 542 159 476L159 167Q159 55 340 55Z"  horiz-adv-x="679" vert-adv-y="1000"  />

      
      <glyph glyph-name="uni1ED8" unicode="&#x1ED8;" d="M338-10Q66-10 66 166L66 473Q66 659 338 659Q613 659 613 474L613 166Q613 72 537 31Q461-10 338-10M340 55Q519 55 519 167L519 476Q519 596 339 596Q252 596 205.50 569Q159 542 159 476L159 167Q159 55 340 55M292-62L387-62L387-151L292-151L292-62M287 832L394 832L460 705L402 705L340 792L277 705L219 705L287 832Z"  horiz-adv-x="679" vert-adv-y="1000"  />

      
      <glyph glyph-name="uni1ED2" unicode="&#x1ED2;" d="M410 907L519 907L550 811L476 811L410 907M287 845L394 845L460 718L402 718L340 805L277 718L219 718L287 845M338-10Q66-10 66 166L66 473Q66 659 338 659Q613 659 613 474L613 166Q613 72 537 31Q461-10 338-10M340 55Q519 55 519 167L519 476Q519 596 339 596Q252 596 205.50 569Q159 542 159 476L159 167Q159 55 340 55Z"  horiz-adv-x="679" vert-adv-y="1000"  />

      
      <glyph glyph-name="uni1ED4" unicode="&#x1ED4;" d="M338-10Q66-10 66 166L66 473Q66 659 338 659Q613 659 613 474L613 166Q613 72 537 31Q461-10 338-10M340 55Q519 55 519 167L519 476Q519 596 339 596Q252 596 205.50 569Q159 542 159 476L159 167Q159 55 340 55M287 845L394 845L460 718L402 718L340 805L277 718L219 718L287 845M458 802Q458 817 463 824Q468 831 478 839Q491 848 495 858Q499 868 499 885Q499 901 489 906.50Q479 912 455 912Q441 912 429.50 909Q418 906 415 905L415 960Q425 964 434.50 965.50Q444 967 462 967Q511 967 534.50 945.50Q558 924 558 888Q558 871 553 854.50Q548 838 539 831Q525 820 519 813Q513 806 513 793L458 793L458 802Z"  horiz-adv-x="679" vert-adv-y="1000"  />

      
      <glyph glyph-name="uni1ED6" unicode="&#x1ED6;" d="M338-10Q66-10 66 166L66 473Q66 659 338 659Q613 659 613 474L613 166Q613 72 537 31Q461-10 338-10M340 55Q519 55 519 167L519 476Q519 596 339 596Q252 596 205.50 569Q159 542 159 476L159 167Q159 55 340 55M287 845L394 845L460 718L402 718L340 805L277 718L219 718L287 845M203 889Q210 916 231 936.50Q252 957 285 957Q308 957 347 942Q384 927 401 927Q416 927 429 935Q442 943 448 959L479 941Q471 913 448 891Q425 869 392 869Q369 869 327 886Q288 902 276 902Q247 902 234 869L203 889Z"  horiz-adv-x="679" vert-adv-y="1000"  />

      
      <glyph glyph-name="unid6" unicode="&#xd6;" d="M200 809L290 809L290 715L200 715L200 809M370 809L460 809L460 715L370 715L370 809M338-10Q66-10 66 166L66 473Q66 659 338 659Q613 659 613 474L613 166Q613 114 588 77Q563 40 518 22Q475 5 432.50-2.50Q390-10 338-10M340 55Q519 55 519 167L519 476Q519 596 339 596Q299 596 270.50 591.50Q242 587 216 575Q159 548 159 476L159 167Q159 55 340 55Z"  horiz-adv-x="679" vert-adv-y="1000"  />

      
      <glyph glyph-name="uni1ECC" unicode="&#x1ECC;" d="M338-10Q66-10 66 166L66 473Q66 659 338 659Q613 659 613 474L613 166Q613 72 537 31Q461-10 338-10M340 55Q519 55 519 167L519 476Q519 596 339 596Q252 596 205.50 569Q159 542 159 476L159 167Q159 55 340 55M292-62L387-62L387-151L292-151L292-62Z"  horiz-adv-x="679" vert-adv-y="1000"  />

      
      <glyph glyph-name="unid2" unicode="&#xd2;" d="M338-10Q66-10 66 166L66 473Q66 659 338 659Q613 659 613 474L613 166Q613 72 537 31Q461-10 338-10M340 55Q519 55 519 167L519 476Q519 596 339 596Q252 596 205.50 569Q159 542 159 476L159 167Q159 55 340 55M176 839L285 839L375 712L301 712L176 839Z"  horiz-adv-x="679" vert-adv-y="1000"  />

      
      <glyph glyph-name="uni1ECE" unicode="&#x1ECE;" d="M338-10Q66-10 66 166L66 473Q66 659 338 659Q613 659 613 474L613 166Q613 72 537 31Q461-10 338-10M340 55Q519 55 519 167L519 476Q519 596 339 596Q252 596 205.50 569Q159 542 159 476L159 167Q159 55 340 55M311 746Q311 761 316 768Q321 775 331 783Q344 792 348 802Q352 812 352 829Q352 845 342 850.50Q332 856 308 856Q294 856 282.50 853Q271 850 268 849L268 904Q278 908 287.50 909.50Q297 911 315 911Q364 911 387.50 889.50Q411 868 411 832Q411 815 406 798.50Q401 782 392 775Q378 764 372 757Q366 750 366 737L311 737L311 746Z"  horiz-adv-x="679" vert-adv-y="1000"  />

      
      <glyph glyph-name="uni01A0" unicode="&#x01A0;" d="M561 600Q613 555 613 474L613 166Q613 72 537 31Q461-10 338-10Q66-10 66 166L66 473Q66 659 338 659Q404 659 451 649Q491 650 508.50 656Q526 662 532 679.50Q538 697 538 737L621 736Q621 677 608.50 645.50Q596 614 561 600M519 476Q519 596 339 596Q252 596 205.50 569Q159 542 159 476L159 167Q159 55 340 55Q519 55 519 167L519 476Z"  horiz-adv-x="679" vert-adv-y="1000"  />

      
      <glyph glyph-name="uni1EDA" unicode="&#x1EDA;" d="M561 600Q613 555 613 474L613 166Q613 72 537 31Q461-10 338-10Q66-10 66 166L66 473Q66 659 338 659Q404 659 451 649Q491 650 508.50 656Q526 662 532 679.50Q538 697 538 737L621 736Q621 677 608.50 645.50Q596 614 561 600M519 476Q519 596 339 596Q252 596 205.50 569Q159 542 159 476L159 167Q159 55 340 55Q519 55 519 167L519 476M380 842L489 842L364 715L290 715L380 842Z"  horiz-adv-x="679" vert-adv-y="1000"  />

      
      <glyph glyph-name="uni1EE2" unicode="&#x1EE2;" d="M561 600Q613 555 613 474L613 166Q613 72 537 31Q461-10 338-10Q66-10 66 166L66 473Q66 659 338 659Q404 659 451 649Q491 650 508.50 656Q526 662 532 679.50Q538 697 538 737L621 736Q621 677 608.50 645.50Q596 614 561 600M519 476Q519 596 339 596Q252 596 205.50 569Q159 542 159 476L159 167Q159 55 340 55Q519 55 519 167L519 476M292-62L387-62L387-151L292-151L292-62Z"  horiz-adv-x="679" vert-adv-y="1000"  />

      
      <glyph glyph-name="uni1EDC" unicode="&#x1EDC;" d="M561 600Q613 555 613 474L613 166Q613 72 537 31Q461-10 338-10Q66-10 66 166L66 473Q66 659 338 659Q404 659 451 649Q491 650 508.50 656Q526 662 532 679.50Q538 697 538 737L621 736Q621 677 608.50 645.50Q596 614 561 600M519 476Q519 596 339 596Q252 596 205.50 569Q159 542 159 476L159 167Q159 55 340 55Q519 55 519 167L519 476M176 839L285 839L375 712L301 712L176 839Z"  horiz-adv-x="679" vert-adv-y="1000"  />

      
      <glyph glyph-name="uni1EDE" unicode="&#x1EDE;" d="M561 600Q613 555 613 474L613 166Q613 72 537 31Q461-10 338-10Q66-10 66 166L66 473Q66 659 338 659Q404 659 451 649Q491 650 508.50 656Q526 662 532 679.50Q538 697 538 737L621 736Q621 677 608.50 645.50Q596 614 561 600M519 476Q519 596 339 596Q252 596 205.50 569Q159 542 159 476L159 167Q159 55 340 55Q519 55 519 167L519 476M311 746Q311 761 316 768Q321 775 331 783Q344 792 348 802Q352 812 352 829Q352 845 342 850.50Q332 856 308 856Q294 856 282.50 853Q271 850 268 849L268 904Q278 908 287.50 909.50Q297 911 315 911Q364 911 387.50 889.50Q411 868 411 832Q411 815 406 798.50Q401 782 392 775Q378 764 372 757Q366 750 366 737L311 737L311 746Z"  horiz-adv-x="679" vert-adv-y="1000"  />

      
      <glyph glyph-name="uni1EE0" unicode="&#x1EE0;" d="M561 600Q613 555 613 474L613 166Q613 72 537 31Q461-10 338-10Q66-10 66 166L66 473Q66 659 338 659Q404 659 451 649Q491 650 508.50 656Q526 662 532 679.50Q538 697 538 737L621 736Q621 677 608.50 645.50Q596 614 561 600M519 476Q519 596 339 596Q252 596 205.50 569Q159 542 159 476L159 167Q159 55 340 55Q519 55 519 167L519 476M181 719Q182 765 210.50 786.50Q239 808 281 808Q301 808 324 801.50Q347 795 351 794Q384 783 398 783Q431 783 431 816L496 815Q495 762 469.50 740.50Q444 719 398 719Q389 719 374.50 723.50Q360 728 345 733Q328 738 310.50 743Q293 748 281 748Q246 748 245 719L181 719Z"  horiz-adv-x="679" vert-adv-y="1000"  />

      
      <glyph glyph-name="uni0150" unicode="&#x0150;" d="M278 831L354 831L284 703L208 703L278 831M405 831L481 831L411 703L335 703L405 831M338-10Q66-10 66 166L66 473Q66 659 338 659Q613 659 613 474L613 166Q613 114 588 77Q563 40 518 22Q475 5 432.50-2.50Q390-10 338-10M340 55Q519 55 519 167L519 476Q519 596 339 596Q299 596 270.50 591.50Q242 587 216 575Q159 548 159 476L159 167Q159 55 340 55Z"  horiz-adv-x="679" vert-adv-y="1000"  />

      
      <glyph glyph-name="uni014C" unicode="&#x014C;" d="M223 798L441 798L441 739L223 739L223 798M338-10Q66-10 66 166L66 473Q66 659 338 659Q613 659 613 474L613 166Q613 114 588 77Q563 40 518 22Q475 5 432.50-2.50Q390-10 338-10M340 55Q519 55 519 167L519 476Q519 596 339 596Q299 596 270.50 591.50Q242 587 216 575Q159 548 159 476L159 167Q159 55 340 55Z"  horiz-adv-x="679" vert-adv-y="1000"  />

      
      <glyph glyph-name="unid8" unicode="&#xd8;" d="M338-10Q66-10 66 166L66 473Q66 659 338 659Q613 659 613 474L613 166Q613 114 588 77Q563 40 518 22Q475 5 432.50-2.50Q390-10 338-10M475 566Q432 596 339 596Q299 596 270.50 591.50Q242 587 216 575Q159 548 159 476L159 167Q159 150 161 140L475 566M340 55Q519 55 519 167L519 476Q519 492 516 507L203 83Q246 55 340 55Z"  horiz-adv-x="679" vert-adv-y="1000"  />

      
      <glyph glyph-name="unid5" unicode="&#xd5;" d="M338-10Q66-10 66 166L66 473Q66 659 338 659Q613 659 613 474L613 166Q613 72 537 31Q461-10 338-10M340 55Q519 55 519 167L519 476Q519 596 339 596Q252 596 205.50 569Q159 542 159 476L159 167Q159 55 340 55M181 719Q182 765 210.50 786.50Q239 808 281 808Q301 808 324 801.50Q347 795 351 794Q384 783 398 783Q431 783 431 816L496 815Q495 762 469.50 740.50Q444 719 398 719Q389 719 374.50 723.50Q360 728 345 733Q328 738 310.50 743Q293 748 281 748Q246 748 245 719L181 719Z"  horiz-adv-x="679" vert-adv-y="1000"  />

      
      <glyph glyph-name="uni0152" unicode="&#x0152;" d="M356 0Q84 0 84 176L84 463Q84 649 356 649L924 649L924 581L585 581L585 369L891 369L891 301L585 301L585 68L934 68L934 0L356 0M488 66L488 582L358 582Q319 582 290 577.50Q261 573 235 562Q177 537 177 464L177 178Q177 66 362 66L488 66Z"  horiz-adv-x="984" vert-adv-y="1000"  />

      
      <glyph glyph-name="uni50" unicode="&#x50;" d="M84 649L296 649Q341 649 368.50 647Q396 645 427 638Q459 631 478.50 617Q498 603 512 579Q525 556 525 521L525 386Q525 305 462.50 269.50Q400 234 278 234L181 234L181 0L84 0L84 649M291 295Q354 295 392 318Q430 341 430 391L430 509Q430 536 416 553.50Q402 571 376 578Q351 584 334 586Q317 588 289 588L180 588L180 295L291 295Z"  horiz-adv-x="570" vert-adv-y="1000"  />

      
      <glyph glyph-name="unide" unicode="&#xde;" d="M84 649L181 649L181 534L296 534Q341 534 368.50 532Q396 530 427 523Q459 516 478.50 502Q498 488 512 464Q525 441 525 406L525 271Q525 190 462.50 154.50Q400 119 278 119L181 119L181 0L84 0L84 649M291 180Q354 180 392 203Q430 226 430 276L430 394Q430 421 416 438.50Q402 456 376 463Q351 469 334 471Q317 473 289 473L181 473L181 180L291 180Z"  horiz-adv-x="570" vert-adv-y="1000"  />

      
      <glyph glyph-name="uni51" unicode="&#x51;" d="M337 0Q64 0 64 176L64 473Q64 659 337 659Q611 659 611 474L611 206Q611 114 522 55L682 55L682 0L337 0M339 65Q518 65 518 177L518 476Q518 596 338 596Q298 596 269 591.50Q240 587 214 575Q157 548 157 476L157 177Q157 65 339 65Z"  horiz-adv-x="676" vert-adv-y="1000"  />

      
      <glyph glyph-name="uni52" unicode="&#x52;" d="M84 649L312 649Q398 649 446.50 638.50Q495 628 517.50 601Q540 574 540 522L540 410Q540 352 492.50 320.50Q445 289 372 289L580 0L461 0L275 277L181 277L181 0L84 0L84 649M308 341Q380 341 411.50 358.50Q443 376 443 422L443 512Q443 585 317 585L181 585L181 341L308 341Z"  horiz-adv-x="632" vert-adv-y="1000"  />

      
      <glyph glyph-name="uni0154" unicode="&#x0154;" d="M306 830L415 830L290 703L216 703L306 830M84 649L312 649Q398 649 446.50 638.50Q495 628 517.50 601Q540 574 540 522L540 410Q540 352 492.50 320.50Q445 289 372 289L580 0L461 0L275 277L181 277L181 0L84 0L84 649M308 341Q380 341 411.50 358.50Q443 376 443 422L443 512Q443 585 317 585L181 585L181 341L308 341Z"  horiz-adv-x="612" vert-adv-y="1000"  />

      
      <glyph glyph-name="uni0158" unicode="&#x0158;" d="M172 830L230 830L293 743L355 830L413 830L347 703L240 703L172 830M84 649L312 649Q398 649 446.50 638.50Q495 628 517.50 601Q540 574 540 522L540 410Q540 352 492.50 320.50Q445 289 372 289L580 0L461 0L275 277L181 277L181 0L84 0L84 649M308 341Q380 341 411.50 358.50Q443 376 443 422L443 512Q443 585 317 585L181 585L181 341L308 341Z"  horiz-adv-x="612" vert-adv-y="1000"  />

      
      <glyph glyph-name="uni0156" unicode="&#x0156;" d="M84 649L312 649Q398 649 446.50 638.50Q495 628 517.50 601Q540 574 540 522L540 410Q540 352 492.50 320.50Q445 289 372 289L580 0L461 0L275 277L181 277L181 0L84 0L84 649M308 341Q380 341 411.50 358.50Q443 376 443 422L443 512Q443 585 317 585L181 585L181 341L308 341M288-40L389-40L306-190L242-190L288-40Z"  horiz-adv-x="612" vert-adv-y="1000"  />

      
      <glyph glyph-name="uni53" unicode="&#x53;" d="M271-10Q188-10 73 6L73 87Q189 62 277 62Q351 62 385 78.50Q419 95 419 140L419 224Q419 266 395 283Q371 300 311 300L235 300Q140 300 100 338Q60 376 60 456L60 508Q60 561 83.50 594Q107 627 162.50 643Q218 659 315 659Q380 659 482 648L482 575Q368 592 308 592Q215 592 185 574Q154 555 154 511L154 437Q154 403 178.50 387.50Q203 372 263 372L341 372Q408 372 445.50 356Q483 340 498.50 307.50Q514 275 514 220L514 173Q514 104 488.50 64Q463 24 410 7Q357-10 271-10Z"  horiz-adv-x="569" vert-adv-y="1000"  />

      
      <glyph glyph-name="uni015A" unicode="&#x015A;" d="M322 830L431 830L306 703L232 703L322 830M271-10Q188-10 73 6L73 87Q189 62 277 62Q351 62 385 78.50Q419 95 419 140L419 224Q419 266 395 283Q371 300 311 300L235 300Q140 300 100 338Q60 376 60 456L60 508Q60 561 83.50 594Q107 627 162.50 643Q218 659 315 659Q380 659 482 648L482 575Q368 592 308 592Q215 592 185 574Q154 555 154 511L154 437Q154 403 178.50 387.50Q203 372 263 372L341 372Q408 372 445.50 356Q483 340 498.50 307.50Q514 275 514 220L514 173Q514 104 488.50 64Q463 24 410 7Q357-10 271-10Z"  horiz-adv-x="569" vert-adv-y="1000"  />

      
      <glyph glyph-name="uni0160" unicode="&#x0160;" d="M150 830L208 830L271 743L333 830L391 830L325 703L218 703L150 830M271-10Q188-10 73 6L73 87Q189 62 277 62Q351 62 385 78.50Q419 95 419 140L419 224Q419 266 395 283Q371 300 311 300L235 300Q140 300 100 338Q60 376 60 456L60 508Q60 561 83.50 594Q107 627 162.50 643Q218 659 315 659Q380 659 482 648L482 575Q368 592 308 592Q215 592 185 574Q154 555 154 511L154 437Q154 403 178.50 387.50Q203 372 263 372L341 372Q408 372 445.50 356Q483 340 498.50 307.50Q514 275 514 220L514 173Q514 104 488.50 64Q463 24 410 7Q357-10 271-10Z"  horiz-adv-x="569" vert-adv-y="1000"  />

      
      <glyph glyph-name="uni015E" unicode="&#x015E;" d="M268-220Q218-220 187-201L208-156Q239-173 266-173Q313-173 313-133Q313-114 291-103Q269-92 235-92L202-92Q226-51 246-10Q184-9 73 6L73 87Q189 62 277 62Q351 62 385 78.50Q419 95 419 140L419 224Q419 266 395 283Q371 300 311 300L235 300Q140 300 100 338Q60 376 60 456L60 508Q60 561 83.50 594Q107 627 162.50 643Q218 659 315 659Q380 659 482 648L482 575Q368 592 308 592Q215 592 185 574Q154 555 154 511L154 437Q154 403 178.50 387.50Q203 372 263 372L341 372Q408 372 445.50 356Q483 340 498.50 307.50Q514 275 514 220L514 173Q514 79 465.50 37.50Q417-4 309-9L288-52Q327-53 354-73.50Q381-94 381-130Q381-172 348.50-196Q316-220 268-220Z"  horiz-adv-x="569" vert-adv-y="1000"  />

      
      <glyph glyph-name="uni015C" unicode="&#x015C;" d="M241 830L348 830L414 703L356 703L294 790L231 703L173 703L241 830M271-10Q188-10 73 6L73 87Q189 62 277 62Q351 62 385 78.50Q419 95 419 140L419 224Q419 266 395 283Q371 300 311 300L235 300Q140 300 100 338Q60 376 60 456L60 508Q60 561 83.50 594Q107 627 162.50 643Q218 659 315 659Q380 659 482 648L482 575Q368 592 308 592Q215 592 185 574Q154 555 154 511L154 437Q154 403 178.50 387.50Q203 372 263 372L341 372Q408 372 445.50 356Q483 340 498.50 307.50Q514 275 514 220L514 173Q514 104 488.50 64Q463 24 410 7Q357-10 271-10Z"  horiz-adv-x="569" vert-adv-y="1000"  />

      
      <glyph glyph-name="uni0218" unicode="&#x0218;" d="M271-10Q188-10 73 6L73 87Q189 62 277 62Q351 62 385 78.50Q419 95 419 140L419 224Q419 266 395 283Q371 300 311 300L235 300Q140 300 100 338Q60 376 60 456L60 508Q60 561 83.50 594Q107 627 162.50 643Q218 659 315 659Q380 659 482 648L482 575Q368 592 308 592Q215 592 185 574Q154 555 154 511L154 437Q154 403 178.50 387.50Q203 372 263 372L341 372Q408 372 445.50 356Q483 340 498.50 307.50Q514 275 514 220L514 173Q514 104 488.50 64Q463 24 410 7Q357-10 271-10M255-40L356-40L273-190L209-190L255-40Z"  horiz-adv-x="569" vert-adv-y="1000"  />

      
      <glyph glyph-name="uni54" unicode="&#x54;" d="M244 581L24 581L24 649L561 649L561 581L342 581L342 0L244 0L244 581Z"  horiz-adv-x="585" vert-adv-y="1000"  />

      
      <glyph glyph-name="uni0166" unicode="&#x0166;" d="M244 301L144 301L144 369L244 369L244 581L24 581L24 649L561 649L561 581L342 581L342 369L442 369L442 301L342 301L342 0L244 0L244 301Z"  horiz-adv-x="585" vert-adv-y="1000"  />

      
      <glyph glyph-name="uni0164" unicode="&#x0164;" d="M173 830L231 830L294 743L356 830L414 830L348 703L241 703L173 830M244 581L24 581L24 649L561 649L561 581L342 581L342 0L244 0L244 581Z"  horiz-adv-x="585" vert-adv-y="1000"  />

      
      <glyph glyph-name="uni0162" unicode="&#x0162;" d="M322 0L300-44Q339-45 366-65.50Q393-86 393-122Q393-164 360.50-188Q328-212 280-212Q230-212 199-193L220-148Q251-165 278-165Q325-165 325-125Q325-106 303-95Q281-84 247-84L214-84Q235-48 259 0L244 0L244 581L24 581L24 649L561 649L561 581L342 581L342 0L322 0Z"  horiz-adv-x="600" vert-adv-y="1000"  />

      
      <glyph glyph-name="uni021A" unicode="&#x021A;" d="M244 581L24 581L24 649L561 649L561 581L342 581L342 0L244 0L244 581M249-40L350-40L267-190L203-190L249-40Z"  horiz-adv-x="585" vert-adv-y="1000"  />

      
      <glyph glyph-name="uni55" unicode="&#x55;" d="M337-10Q284-10 244.50-3Q205 4 167 21Q127 39 105.50 76Q84 113 84 166L84 649L177 649L177 167Q177 106 218 80.50Q259 55 339 55Q419 55 458.50 80.50Q498 106 498 167L498 649L591 649L591 166Q591-10 337-10Z"  horiz-adv-x="676" vert-adv-y="1000"  />

      
      <glyph glyph-name="unida" unicode="&#xda;" d="M337-10Q284-10 244.50-3Q205 4 167 21Q127 39 105.50 76Q84 113 84 166L84 649L177 649L177 167Q177 106 218 80.50Q259 55 339 55Q419 55 458.50 80.50Q498 106 498 167L498 649L591 649L591 166Q591-10 337-10M378 842L487 842L362 715L288 715L378 842Z"  horiz-adv-x="676" vert-adv-y="1000"  />

      
      <glyph glyph-name="uni016C" unicode="&#x016C;" d="M338 718Q285 718 253.50 752.50Q222 787 220 845L274 845Q280 777 338 777Q396 777 402 845L456 845Q455 788 423 753Q391 718 338 718M337-10Q284-10 244.50-3Q205 4 167 21Q127 39 105.50 76Q84 113 84 166L84 649L177 649L177 167Q177 106 218 80.50Q259 55 339 55Q419 55 458.50 80.50Q498 106 498 167L498 649L591 649L591 166Q591-10 337-10Z"  horiz-adv-x="676" vert-adv-y="1000"  />

      
      <glyph glyph-name="unidb" unicode="&#xdb;" d="M279 830L386 830L452 703L394 703L332 790L269 703L211 703L279 830M337-10Q284-10 244.50-3Q205 4 167 21Q127 39 105.50 76Q84 113 84 166L84 649L177 649L177 167Q177 106 218 80.50Q259 55 339 55Q419 55 458.50 80.50Q498 106 498 167L498 649L591 649L591 166Q591-10 337-10Z"  horiz-adv-x="676" vert-adv-y="1000"  />

      
      <glyph glyph-name="unidc" unicode="&#xdc;" d="M201 809L291 809L291 715L201 715L201 809M371 809L461 809L461 715L371 715L371 809M337-10Q284-10 244.50-3Q205 4 167 21Q127 39 105.50 76Q84 113 84 166L84 649L177 649L177 167Q177 106 218 80.50Q259 55 339 55Q419 55 458.50 80.50Q498 106 498 167L498 649L591 649L591 166Q591-10 337-10Z"  horiz-adv-x="676" vert-adv-y="1000"  />

      
      <glyph glyph-name="uni1EE4" unicode="&#x1EE4;" d="M337-10Q284-10 244.50-3Q205 4 167 21Q127 39 105.50 76Q84 113 84 166L84 649L177 649L177 167Q177 106 218 80.50Q259 55 339 55Q419 55 458.50 80.50Q498 106 498 167L498 649L591 649L591 166Q591-10 337-10M290-62L385-62L385-151L290-151L290-62Z"  horiz-adv-x="676" vert-adv-y="1000"  />

      
      <glyph glyph-name="unid9" unicode="&#xd9;" d="M337-10Q284-10 244.50-3Q205 4 167 21Q127 39 105.50 76Q84 113 84 166L84 649L177 649L177 167Q177 106 218 80.50Q259 55 339 55Q419 55 458.50 80.50Q498 106 498 167L498 649L591 649L591 166Q591-10 337-10M174 839L283 839L373 712L299 712L174 839Z"  horiz-adv-x="676" vert-adv-y="1000"  />

      
      <glyph glyph-name="uni1EE6" unicode="&#x1EE6;" d="M337-10Q284-10 244.50-3Q205 4 167 21Q127 39 105.50 76Q84 113 84 166L84 649L177 649L177 167Q177 106 218 80.50Q259 55 339 55Q419 55 458.50 80.50Q498 106 498 167L498 649L591 649L591 166Q591-10 337-10M309 746Q309 761 314 768Q319 775 329 783Q342 792 346 802Q350 812 350 829Q350 845 340 850.50Q330 856 306 856Q292 856 280.50 853Q269 850 266 849L266 904Q276 908 285.50 909.50Q295 911 313 911Q362 911 385.50 889.50Q409 868 409 832Q409 815 404 798.50Q399 782 390 775Q376 764 370 757Q364 750 364 737L309 737L309 746Z"  horiz-adv-x="676" vert-adv-y="1000"  />

      
      <glyph glyph-name="uni01AF" unicode="&#x01AF;" d="M690 736Q690 664 670 631.50Q650 599 591 589L591 166Q591-10 337-10Q284-10 244.50-3Q205 4 167 21Q127 39 105.50 76Q84 113 84 166L84 649L177 649L177 167Q177 106 218 80.50Q259 55 339 55Q419 55 458.50 80.50Q498 106 498 167L498 649L511 649Q556 649 574.50 654.50Q593 660 600 677.50Q607 695 607 737L690 736Z"  horiz-adv-x="676" vert-adv-y="1000"  />

      
      <glyph glyph-name="uni1EE8" unicode="&#x1EE8;" d="M690 736Q690 664 670 631.50Q650 599 591 589L591 166Q591-10 337-10Q284-10 244.50-3Q205 4 167 21Q127 39 105.50 76Q84 113 84 166L84 649L177 649L177 167Q177 106 218 80.50Q259 55 339 55Q419 55 458.50 80.50Q498 106 498 167L498 649L511 649Q556 649 574.50 654.50Q593 660 600 677.50Q607 695 607 737L690 736M378 842L487 842L362 715L288 715L378 842Z"  horiz-adv-x="676" vert-adv-y="1000"  />

      
      <glyph glyph-name="uni1EF0" unicode="&#x1EF0;" d="M690 736Q690 664 670 631.50Q650 599 591 589L591 166Q591-10 337-10Q284-10 244.50-3Q205 4 167 21Q127 39 105.50 76Q84 113 84 166L84 649L177 649L177 167Q177 106 218 80.50Q259 55 339 55Q419 55 458.50 80.50Q498 106 498 167L498 649L511 649Q556 649 574.50 654.50Q593 660 600 677.50Q607 695 607 737L690 736M290-62L385-62L385-151L290-151L290-62Z"  horiz-adv-x="676" vert-adv-y="1000"  />

      
      <glyph glyph-name="uni1EEA" unicode="&#x1EEA;" d="M690 736Q690 664 670 631.50Q650 599 591 589L591 166Q591-10 337-10Q284-10 244.50-3Q205 4 167 21Q127 39 105.50 76Q84 113 84 166L84 649L177 649L177 167Q177 106 218 80.50Q259 55 339 55Q419 55 458.50 80.50Q498 106 498 167L498 649L511 649Q556 649 574.50 654.50Q593 660 600 677.50Q607 695 607 737L690 736M174 839L283 839L373 712L299 712L174 839Z"  horiz-adv-x="676" vert-adv-y="1000"  />

      
      <glyph glyph-name="uni1EEC" unicode="&#x1EEC;" d="M690 736Q690 664 670 631.50Q650 599 591 589L591 166Q591-10 337-10Q284-10 244.50-3Q205 4 167 21Q127 39 105.50 76Q84 113 84 166L84 649L177 649L177 167Q177 106 218 80.50Q259 55 339 55Q419 55 458.50 80.50Q498 106 498 167L498 649L511 649Q556 649 574.50 654.50Q593 660 600 677.50Q607 695 607 737L690 736M309 746Q309 761 314 768Q319 775 329 783Q342 792 346 802Q350 812 350 829Q350 845 340 850.50Q330 856 306 856Q292 856 280.50 853Q269 850 266 849L266 904Q276 908 285.50 909.50Q295 911 313 911Q362 911 385.50 889.50Q409 868 409 832Q409 815 404 798.50Q399 782 390 775Q376 764 370 757Q364 750 364 737L309 737L309 746Z"  horiz-adv-x="676" vert-adv-y="1000"  />

      
      <glyph glyph-name="uni1EEE" unicode="&#x1EEE;" d="M690 736Q690 664 670 631.50Q650 599 591 589L591 166Q591-10 337-10Q284-10 244.50-3Q205 4 167 21Q127 39 105.50 76Q84 113 84 166L84 649L177 649L177 167Q177 106 218 80.50Q259 55 339 55Q419 55 458.50 80.50Q498 106 498 167L498 649L511 649Q556 649 574.50 654.50Q593 660 600 677.50Q607 695 607 737L690 736M179 719Q180 765 208.50 786.50Q237 808 279 808Q299 808 322 801.50Q345 795 349 794Q382 783 396 783Q429 783 429 816L494 815Q493 762 467.50 740.50Q442 719 396 719Q387 719 372.50 723.50Q358 728 343 733Q326 738 308.50 743Q291 748 279 748Q244 748 243 719L179 719Z"  horiz-adv-x="676" vert-adv-y="1000"  />

      
      <glyph glyph-name="uni0170" unicode="&#x0170;" d="M279 831L355 831L285 703L209 703L279 831M406 831L482 831L412 703L336 703L406 831M337-10Q284-10 244.50-3Q205 4 167 21Q127 39 105.50 76Q84 113 84 166L84 649L177 649L177 167Q177 106 218 80.50Q259 55 339 55Q419 55 458.50 80.50Q498 106 498 167L498 649L591 649L591 166Q591-10 337-10Z"  horiz-adv-x="676" vert-adv-y="1000"  />

      
      <glyph glyph-name="uni016A" unicode="&#x016A;" d="M225 798L443 798L443 739L225 739L225 798M337-10Q284-10 244.50-3Q205 4 167 21Q127 39 105.50 76Q84 113 84 166L84 649L177 649L177 167Q177 106 218 80.50Q259 55 339 55Q419 55 458.50 80.50Q498 106 498 167L498 649L591 649L591 166Q591-10 337-10Z"  horiz-adv-x="676" vert-adv-y="1000"  />

      
      <glyph glyph-name="uni0172" unicode="&#x0172;" d="M379-186Q329-186 304.50-167Q280-148 280-106Q280-60 310-9Q84-2 84 166L84 649L177 649L177 167Q177 106 218 80.50Q259 55 339 55Q419 55 458.50 80.50Q498 106 498 167L498 649L591 649L591 166Q591 9 385-8Q359-54 359-97Q359-130 398-130Q408-130 429-123L429-176Q409-186 379-186Z"  horiz-adv-x="676" vert-adv-y="1000"  />

      
      <glyph glyph-name="uni016E" unicode="&#x016E;" d="M344 703Q307 703 288 705.50Q269 708 249 717Q229 726 220 746Q211 766 211 801L211 813Q211 850 220 871.50Q229 893 249 903Q269 912 288 914.50Q307 917 344 917Q374 917 390.50 915.50Q407 914 425 909Q444 903 454 892.50Q464 882 471 862Q478 844 478 813L478 801Q478 766 469.50 746Q461 726 441 717Q421 708 401.50 705.50Q382 703 344 703M344 745Q374 745 388.50 748Q403 751 409 761.50Q415 772 415 794L415 821Q415 845 409 856.50Q403 868 388.50 871.50Q374 875 344 875Q314 875 300 871.50Q286 868 280 856.50Q274 845 274 821L274 794Q274 772 280 761.50Q286 751 300 748Q314 745 344 745M337-10Q284-10 244.50-3Q205 4 167 21Q127 39 105.50 76Q84 113 84 166L84 649L177 649L177 167Q177 106 218 80.50Q259 55 339 55Q419 55 458.50 80.50Q498 106 498 167L498 649L591 649L591 166Q591-10 337-10Z"  horiz-adv-x="717" vert-adv-y="1000"  />

      
      <glyph glyph-name="uni0168" unicode="&#x0168;" d="M337-10Q284-10 244.50-3Q205 4 167 21Q127 39 105.50 76Q84 113 84 166L84 649L177 649L177 167Q177 106 218 80.50Q259 55 339 55Q419 55 458.50 80.50Q498 106 498 167L498 649L591 649L591 166Q591-10 337-10M179 719Q180 765 208.50 786.50Q237 808 279 808Q299 808 322 801.50Q345 795 349 794Q382 783 396 783Q429 783 429 816L494 815Q493 762 467.50 740.50Q442 719 396 719Q387 719 372.50 723.50Q358 728 343 733Q326 738 308.50 743Q291 748 279 748Q244 748 243 719L179 719Z"  horiz-adv-x="676" vert-adv-y="1000"  />

      
      <glyph glyph-name="uni56" unicode="&#x56;" d="M15 649L116 649L324 92L333 92L541 649L637 649L379 0L267 0L15 649Z"  horiz-adv-x="652" vert-adv-y="1000"  />

      
      <glyph glyph-name="uni57" unicode="&#x57;" d="M8 649L111 649L272 92L274 92L435 649L538 649L699 92L701 92L862 649L960 649L751 0L638 0L483 540L324 0L211 0L8 649Z"  horiz-adv-x="968" vert-adv-y="1000"  />

      
      <glyph glyph-name="uni1E82" unicode="&#x1E82;" d="M520 830L629 830L504 703L430 703L520 830M8 649L111 649L272 92L274 92L435 649L538 649L699 92L701 92L862 649L960 649L751 0L638 0L483 540L324 0L211 0L8 649Z"  horiz-adv-x="968" vert-adv-y="1000"  />

      
      <glyph glyph-name="uni0174" unicode="&#x0174;" d="M433 830L540 830L606 703L548 703L486 790L423 703L365 703L433 830M8 649L111 649L272 92L274 92L435 649L538 649L699 92L701 92L862 649L960 649L751 0L638 0L483 540L324 0L211 0L8 649Z"  horiz-adv-x="968" vert-adv-y="1000"  />

      
      <glyph glyph-name="uni1E84" unicode="&#x1E84;" d="M353 829L443 829L443 735L353 735L353 829M523 829L613 829L613 735L523 735L523 829M8 649L111 649L272 92L274 92L435 649L538 649L699 92L701 92L862 649L960 649L751 0L638 0L483 540L324 0L211 0L8 649Z"  horiz-adv-x="968" vert-adv-y="1000"  />

      
      <glyph glyph-name="uni1E80" unicode="&#x1E80;" d="M324 830L433 830L523 703L449 703L324 830M8 649L111 649L272 92L274 92L435 649L538 649L699 92L701 92L862 649L960 649L751 0L638 0L483 540L324 0L211 0L8 649Z"  horiz-adv-x="968" vert-adv-y="1000"  />

      
      <glyph glyph-name="uni58" unicode="&#x58;" d="M247 331L18 649L129 649L302 398L475 649L586 649L357 331L596 0L485 0L302 264L119 0L8 0L247 331Z"  horiz-adv-x="604" vert-adv-y="1000"  />

      
      <glyph glyph-name="uni59" unicode="&#x59;" d="M243 262L8 649L119 649L292 344L465 649L576 649L340 265L340 0L243 0L243 262Z"  horiz-adv-x="584" vert-adv-y="1000"  />

      
      <glyph glyph-name="unidd" unicode="&#xdd;" d="M243 262L8 649L119 649L292 344L465 649L576 649L340 265L340 0L243 0L243 262M332 842L441 842L316 715L242 715L332 842Z"  horiz-adv-x="584" vert-adv-y="1000"  />

      
      <glyph glyph-name="uni0176" unicode="&#x0176;" d="M240 830L347 830L413 703L355 703L293 790L230 703L172 703L240 830M243 262L8 649L119 649L292 344L465 649L576 649L340 265L340 0L243 0L243 262Z"  horiz-adv-x="584" vert-adv-y="1000"  />

      
      <glyph glyph-name="uni0178" unicode="&#x0178;" d="M160 809L250 809L250 715L160 715L160 809M330 809L420 809L420 715L330 715L330 809M243 262L8 649L119 649L292 344L465 649L576 649L340 265L340 0L243 0L243 262Z"  horiz-adv-x="584" vert-adv-y="1000"  />

      
      <glyph glyph-name="uni1EF4" unicode="&#x1EF4;" d="M243 262L8 649L119 649L292 344L465 649L576 649L340 265L340 0L243 0L243 262M244-62L339-62L339-151L244-151L244-62Z"  horiz-adv-x="584" vert-adv-y="1000"  />

      
      <glyph glyph-name="uni1EF2" unicode="&#x1EF2;" d="M243 262L8 649L119 649L292 344L465 649L576 649L340 265L340 0L243 0L243 262M128 839L237 839L327 712L253 712L128 839Z"  horiz-adv-x="584" vert-adv-y="1000"  />

      
      <glyph glyph-name="uni1EF6" unicode="&#x1EF6;" d="M243 262L8 649L119 649L292 344L465 649L576 649L340 265L340 0L243 0L243 262M263 746Q263 761 268 768Q273 775 283 783Q296 792 300 802Q304 812 304 829Q304 845 294 850.50Q284 856 260 856Q246 856 234.50 853Q223 850 220 849L220 904Q230 908 239.50 909.50Q249 911 267 911Q316 911 339.50 889.50Q363 868 363 832Q363 815 358 798.50Q353 782 344 775Q330 764 324 757Q318 750 318 737L263 737L263 746Z"  horiz-adv-x="584" vert-adv-y="1000"  />

      
      <glyph glyph-name="uni1EF8" unicode="&#x1EF8;" d="M243 262L8 649L119 649L292 344L465 649L576 649L340 265L340 0L243 0L243 262M133 719Q134 765 162.50 786.50Q191 808 233 808Q253 808 276 801.50Q299 795 303 794Q336 783 350 783Q383 783 383 816L448 815Q447 762 421.50 740.50Q396 719 350 719Q341 719 326.50 723.50Q312 728 297 733Q280 738 262.50 743Q245 748 233 748Q198 748 197 719L133 719Z"  horiz-adv-x="584" vert-adv-y="1000"  />

      
      <glyph glyph-name="uni5a" unicode="&#x5a;" d="M40 68L422 581L50 581L50 649L534 649L534 581L152 68L540 68L540 0L40 0L40 68Z"  horiz-adv-x="580" vert-adv-y="1000"  />

      
      <glyph glyph-name="uni0179" unicode="&#x0179;" d="M303 830L412 830L287 703L213 703L303 830M40 68L422 581L50 581L50 649L534 649L534 581L152 68L540 68L540 0L40 0L40 68Z"  horiz-adv-x="580" vert-adv-y="1000"  />

      
      <glyph glyph-name="uni017D" unicode="&#x017D;" d="M160 830L218 830L281 743L343 830L401 830L335 703L228 703L160 830M40 68L422 581L50 581L50 649L534 649L534 581L152 68L540 68L540 0L40 0L40 68Z"  horiz-adv-x="580" vert-adv-y="1000"  />

      
      <glyph glyph-name="uni017B" unicode="&#x017B;" d="M237 830L327 830L327 732L237 732L237 830M40 68L422 581L50 581L50 649L534 649L534 581L152 68L540 68L540 0L40 0L40 68Z"  horiz-adv-x="580" vert-adv-y="1000"  />

      
      <glyph glyph-name="uni61" unicode="&#x61;" d="M227-10Q158-10 120.50 3Q83 16 66.50 49Q50 82 50 144Q50 199 65.50 229.50Q81 260 118.50 273Q156 286 225 286L370 286L370 363Q370 390 359.50 404.50Q349 419 324.50 425Q300 431 253 431Q178 431 87 419L87 485Q186 494 266 494Q350 494 390 481.50Q430 469 445 438Q460 407 460 342L460 0L373 0L373 46Q362-10 227-10M242 49Q291 49 325 56Q370 65 370 98L370 230L231 230Q188 230 169 223.50Q150 217 144 199Q138 181 138 141Q138 105 145 85.50Q152 66 170 57.50Q188 49 224 49L242 49Z"  horiz-adv-x="538" vert-adv-y="1000"  />

      
      <glyph glyph-name="unie1" unicode="&#xe1;" d="M227-10Q158-10 120.50 3Q83 16 66.50 49Q50 82 50 144Q50 199 65.50 229.50Q81 260 118.50 273Q156 286 225 286L370 286L370 363Q370 390 359.50 404.50Q349 419 324.50 425Q300 431 253 431Q178 431 87 419L87 485Q186 494 266 494Q350 494 390 481.50Q430 469 445 438Q460 407 460 342L460 0L373 0L373 46Q362-10 227-10M242 49Q291 49 325 56Q370 65 370 98L370 230L231 230Q188 230 169 223.50Q150 217 144 199Q138 181 138 141Q138 105 145 85.50Q152 66 170 57.50Q188 49 224 49L242 49M309 680L418 680L293 553L219 553L309 680Z"  horiz-adv-x="538" vert-adv-y="1000"  />

      
      <glyph glyph-name="uni0103" unicode="&#x0103;" d="M227-10Q158-10 120.50 3Q83 16 66.50 49Q50 82 50 144Q50 199 65.50 229.50Q81 260 118.50 273Q156 286 225 286L370 286L370 363Q370 390 359.50 404.50Q349 419 324.50 425Q300 431 253 431Q178 431 87 419L87 485Q186 494 266 494Q350 494 390 481.50Q430 469 445 438Q460 407 460 342L460 0L373 0L373 46Q362-10 227-10M242 49Q291 49 325 56Q370 65 370 98L370 230L231 230Q188 230 169 223.50Q150 217 144 199Q138 181 138 141Q138 105 145 85.50Q152 66 170 57.50Q188 49 224 49L242 49M269 553Q216 553 184.50 587.50Q153 622 151 680L205 680Q211 612 269 612Q327 612 333 680L387 680Q386 623 354 588Q322 553 269 553Z"  horiz-adv-x="538" vert-adv-y="1000"  />

      
      <glyph glyph-name="uni1EAF" unicode="&#x1EAF;" d="M273 799L382 799L307 703L233 703L273 799M269 553Q216 553 184.50 587.50Q153 622 151 680L205 680Q211 612 269 612Q327 612 333 680L387 680Q386 623 354 588Q322 553 269 553M227-10Q158-10 120.50 3Q83 16 66.50 49Q50 82 50 144Q50 199 65.50 229.50Q81 260 118.50 273Q156 286 225 286L370 286L370 363Q370 390 359.50 404.50Q349 419 324.50 425Q300 431 253 431Q178 431 87 419L87 485Q186 494 266 494Q350 494 390 481.50Q430 469 445 438Q460 407 460 342L460 0L373 0L373 46Q362-10 227-10M242 49Q291 49 325 56Q370 65 370 98L370 230L231 230Q188 230 169 223.50Q150 217 144 199Q138 181 138 141Q138 105 145 85.50Q152 66 170 57.50Q188 49 224 49L242 49Z"  horiz-adv-x="538" vert-adv-y="1000"  />

      
      <glyph glyph-name="uni1EB7" unicode="&#x1EB7;" d="M227-10Q158-10 120.50 3Q83 16 66.50 49Q50 82 50 144Q50 199 65.50 229.50Q81 260 118.50 273Q156 286 225 286L370 286L370 363Q370 390 359.50 404.50Q349 419 324.50 425Q300 431 253 431Q178 431 87 419L87 485Q186 494 266 494Q350 494 390 481.50Q430 469 445 438Q460 407 460 342L460 0L373 0L373 46Q362-10 227-10M242 49Q291 49 325 56Q370 65 370 98L370 230L231 230Q188 230 169 223.50Q150 217 144 199Q138 181 138 141Q138 105 145 85.50Q152 66 170 57.50Q188 49 224 49L242 49M221-62L316-62L316-151L221-151L221-62M269 553Q216 553 184.50 587.50Q153 622 151 680L205 680Q211 612 269 612Q327 612 333 680L387 680Q386 623 354 588Q322 553 269 553Z"  horiz-adv-x="538" vert-adv-y="1000"  />

      
      <glyph glyph-name="uni1EB1" unicode="&#x1EB1;" d="M173 797L282 797L313 701L239 701L173 797M269 553Q216 553 184.50 587.50Q153 622 151 680L205 680Q211 612 269 612Q327 612 333 680L387 680Q386 623 354 588Q322 553 269 553M227-10Q158-10 120.50 3Q83 16 66.50 49Q50 82 50 144Q50 199 65.50 229.50Q81 260 118.50 273Q156 286 225 286L370 286L370 363Q370 390 359.50 404.50Q349 419 324.50 425Q300 431 253 431Q178 431 87 419L87 485Q186 494 266 494Q350 494 390 481.50Q430 469 445 438Q460 407 460 342L460 0L373 0L373 46Q362-10 227-10M242 49Q291 49 325 56Q370 65 370 98L370 230L231 230Q188 230 169 223.50Q150 217 144 199Q138 181 138 141Q138 105 145 85.50Q152 66 170 57.50Q188 49 224 49L242 49Z"  horiz-adv-x="538" vert-adv-y="1000"  />

      
      <glyph glyph-name="uni1EB3" unicode="&#x1EB3;" d="M227-10Q158-10 120.50 3Q83 16 66.50 49Q50 82 50 144Q50 199 65.50 229.50Q81 260 118.50 273Q156 286 225 286L370 286L370 363Q370 390 359.50 404.50Q349 419 324.50 425Q300 431 253 431Q178 431 87 419L87 485Q186 494 266 494Q350 494 390 481.50Q430 469 445 438Q460 407 460 342L460 0L373 0L373 46Q362-10 227-10M242 49Q291 49 325 56Q370 65 370 98L370 230L231 230Q188 230 169 223.50Q150 217 144 199Q138 181 138 141Q138 105 145 85.50Q152 66 170 57.50Q188 49 224 49L242 49M269 553Q216 553 184.50 587.50Q153 622 151 680L205 680Q211 612 269 612Q327 612 333 680L387 680Q386 623 354 588Q322 553 269 553M240 705Q240 720 245 727Q250 734 260 742Q273 751 277 761Q281 771 281 788Q281 804 271 809.50Q261 815 237 815Q223 815 211.50 812Q200 809 197 808L197 863Q207 867 216.50 868.50Q226 870 244 870Q293 870 316.50 848.50Q340 827 340 791Q340 774 335 757.50Q330 741 321 734Q307 723 301 716Q295 709 295 696L240 696L240 705Z"  horiz-adv-x="538" vert-adv-y="1000"  />

      
      <glyph glyph-name="uni1EB5" unicode="&#x1EB5;" d="M227-10Q158-10 120.50 3Q83 16 66.50 49Q50 82 50 144Q50 199 65.50 229.50Q81 260 118.50 273Q156 286 225 286L370 286L370 363Q370 390 359.50 404.50Q349 419 324.50 425Q300 431 253 431Q178 431 87 419L87 485Q186 494 266 494Q350 494 390 481.50Q430 469 445 438Q460 407 460 342L460 0L373 0L373 46Q362-10 227-10M242 49Q291 49 325 56Q370 65 370 98L370 230L231 230Q188 230 169 223.50Q150 217 144 199Q138 181 138 141Q138 105 145 85.50Q152 66 170 57.50Q188 49 224 49L242 49M269 553Q216 553 184.50 587.50Q153 622 151 680L205 680Q211 612 269 612Q327 612 333 680L387 680Q386 623 354 588Q322 553 269 553M142 732Q149 759 170 779.50Q191 800 224 800Q247 800 286 785Q323 770 340 770Q355 770 368 778Q381 786 387 802L418 784Q410 756 387 734Q364 712 331 712Q308 712 266 729Q227 745 215 745Q186 745 173 712L142 732Z"  horiz-adv-x="538" vert-adv-y="1000"  />

      
      <glyph glyph-name="unie2" unicode="&#xe2;" d="M227-10Q158-10 120.50 3Q83 16 66.50 49Q50 82 50 144Q50 199 65.50 229.50Q81 260 118.50 273Q156 286 225 286L370 286L370 363Q370 390 359.50 404.50Q349 419 324.50 425Q300 431 253 431Q178 431 87 419L87 485Q186 494 266 494Q350 494 390 481.50Q430 469 445 438Q460 407 460 342L460 0L373 0L373 46Q362-10 227-10M242 49Q291 49 325 56Q370 65 370 98L370 230L231 230Q188 230 169 223.50Q150 217 144 199Q138 181 138 141Q138 105 145 85.50Q152 66 170 57.50Q188 49 224 49L242 49M216 680L323 680L389 553L331 553L269 640L206 553L148 553L216 680Z"  horiz-adv-x="538" vert-adv-y="1000"  />

      
      <glyph glyph-name="uni1EA5" unicode="&#x1EA5;" d="M413 722L522 722L447 626L373 626L413 722M216 680L323 680L389 553L331 553L269 640L206 553L148 553L216 680M227-10Q158-10 120.50 3Q83 16 66.50 49Q50 82 50 144Q50 199 65.50 229.50Q81 260 118.50 273Q156 286 225 286L370 286L370 363Q370 390 359.50 404.50Q349 419 324.50 425Q300 431 253 431Q178 431 87 419L87 485Q186 494 266 494Q350 494 390 481.50Q430 469 445 438Q460 407 460 342L460 0L373 0L373 46Q362-10 227-10M242 49Q291 49 325 56Q370 65 370 98L370 230L231 230Q188 230 169 223.50Q150 217 144 199Q138 181 138 141Q138 105 145 85.50Q152 66 170 57.50Q188 49 224 49L242 49Z"  horiz-adv-x="538" vert-adv-y="1000"  />

      
      <glyph glyph-name="uni1EAD" unicode="&#x1EAD;" d="M227-10Q158-10 120.50 3Q83 16 66.50 49Q50 82 50 144Q50 199 65.50 229.50Q81 260 118.50 273Q156 286 225 286L370 286L370 363Q370 390 359.50 404.50Q349 419 324.50 425Q300 431 253 431Q178 431 87 419L87 485Q186 494 266 494Q350 494 390 481.50Q430 469 445 438Q460 407 460 342L460 0L373 0L373 46Q362-10 227-10M242 49Q291 49 325 56Q370 65 370 98L370 230L231 230Q188 230 169 223.50Q150 217 144 199Q138 181 138 141Q138 105 145 85.50Q152 66 170 57.50Q188 49 224 49L242 49M221-62L316-62L316-151L221-151L221-62M216 680L323 680L389 553L331 553L269 640L206 553L148 553L216 680Z"  horiz-adv-x="538" vert-adv-y="1000"  />

      
      <glyph glyph-name="uni1EA7" unicode="&#x1EA7;" d="M339 742L448 742L479 646L405 646L339 742M216 680L323 680L389 553L331 553L269 640L206 553L148 553L216 680M227-10Q158-10 120.50 3Q83 16 66.50 49Q50 82 50 144Q50 199 65.50 229.50Q81 260 118.50 273Q156 286 225 286L370 286L370 363Q370 390 359.50 404.50Q349 419 324.50 425Q300 431 253 431Q178 431 87 419L87 485Q186 494 266 494Q350 494 390 481.50Q430 469 445 438Q460 407 460 342L460 0L373 0L373 46Q362-10 227-10M242 49Q291 49 325 56Q370 65 370 98L370 230L231 230Q188 230 169 223.50Q150 217 144 199Q138 181 138 141Q138 105 145 85.50Q152 66 170 57.50Q188 49 224 49L242 49Z"  horiz-adv-x="538" vert-adv-y="1000"  />

      
      <glyph glyph-name="uni1EA9" unicode="&#x1EA9;" d="M227-10Q158-10 120.50 3Q83 16 66.50 49Q50 82 50 144Q50 199 65.50 229.50Q81 260 118.50 273Q156 286 225 286L370 286L370 363Q370 390 359.50 404.50Q349 419 324.50 425Q300 431 253 431Q178 431 87 419L87 485Q186 494 266 494Q350 494 390 481.50Q430 469 445 438Q460 407 460 342L460 0L373 0L373 46Q362-10 227-10M242 49Q291 49 325 56Q370 65 370 98L370 230L231 230Q188 230 169 223.50Q150 217 144 199Q138 181 138 141Q138 105 145 85.50Q152 66 170 57.50Q188 49 224 49L242 49M216 680L323 680L389 553L331 553L269 640L206 553L148 553L216 680M387 637Q387 652 392 659Q397 666 407 674Q420 683 424 693Q428 703 428 720Q428 736 418 741.50Q408 747 384 747Q370 747 358.50 744Q347 741 344 740L344 795Q354 799 363.50 800.50Q373 802 391 802Q440 802 463.50 780.50Q487 759 487 723Q487 706 482 689.50Q477 673 468 666Q454 655 448 648Q442 641 442 628L387 628L387 637Z"  horiz-adv-x="538" vert-adv-y="1000"  />

      
      <glyph glyph-name="uni1EAB" unicode="&#x1EAB;" d="M227-10Q158-10 120.50 3Q83 16 66.50 49Q50 82 50 144Q50 199 65.50 229.50Q81 260 118.50 273Q156 286 225 286L370 286L370 363Q370 390 359.50 404.50Q349 419 324.50 425Q300 431 253 431Q178 431 87 419L87 485Q186 494 266 494Q350 494 390 481.50Q430 469 445 438Q460 407 460 342L460 0L373 0L373 46Q362-10 227-10M242 49Q291 49 325 56Q370 65 370 98L370 230L231 230Q188 230 169 223.50Q150 217 144 199Q138 181 138 141Q138 105 145 85.50Q152 66 170 57.50Q188 49 224 49L242 49M216 680L323 680L389 553L331 553L269 640L206 553L148 553L216 680M132 724Q139 751 160 771.50Q181 792 214 792Q237 792 276 777Q313 762 330 762Q345 762 358 770Q371 778 377 794L408 776Q400 748 377 726Q354 704 321 704Q298 704 256 721Q217 737 205 737Q176 737 163 704L132 724Z"  horiz-adv-x="538" vert-adv-y="1000"  />

      
      <glyph glyph-name="unie4" unicode="&#xe4;" d="M130 659L220 659L220 565L130 565L130 659M300 659L390 659L390 565L300 565L300 659M227-10Q158-10 120.50 3Q83 16 66.50 49Q50 82 50 144Q50 199 65.50 229.50Q81 260 118.50 273Q156 286 225 286L370 286L370 363Q370 390 359.50 404.50Q349 419 324.50 425Q300 431 253 431Q178 431 87 419L87 485Q186 494 266 494Q350 494 390 481.50Q430 469 445 438Q460 407 460 342L460 0L373 0L373 46Q362-10 227-10M242 49Q291 49 325 56Q370 65 370 98L370 230L231 230Q188 230 169 223.50Q150 217 144 199Q138 181 138 141Q138 105 145 85.50Q152 66 170 57.50Q188 49 224 49L242 49Z"  horiz-adv-x="538" vert-adv-y="1000"  />

      
      <glyph glyph-name="uni1EA1" unicode="&#x1EA1;" d="M227-10Q158-10 120.50 3Q83 16 66.50 49Q50 82 50 144Q50 199 65.50 229.50Q81 260 118.50 273Q156 286 225 286L370 286L370 363Q370 390 359.50 404.50Q349 419 324.50 425Q300 431 253 431Q178 431 87 419L87 485Q186 494 266 494Q350 494 390 481.50Q430 469 445 438Q460 407 460 342L460 0L373 0L373 46Q362-10 227-10M242 49Q291 49 325 56Q370 65 370 98L370 230L231 230Q188 230 169 223.50Q150 217 144 199Q138 181 138 141Q138 105 145 85.50Q152 66 170 57.50Q188 49 224 49L242 49M221-62L316-62L316-151L221-151L221-62Z"  horiz-adv-x="538" vert-adv-y="1000"  />

      
      <glyph glyph-name="unie0" unicode="&#xe0;" d="M227-10Q158-10 120.50 3Q83 16 66.50 49Q50 82 50 144Q50 199 65.50 229.50Q81 260 118.50 273Q156 286 225 286L370 286L370 363Q370 390 359.50 404.50Q349 419 324.50 425Q300 431 253 431Q178 431 87 419L87 485Q186 494 266 494Q350 494 390 481.50Q430 469 445 438Q460 407 460 342L460 0L373 0L373 46Q362-10 227-10M242 49Q291 49 325 56Q370 65 370 98L370 230L231 230Q188 230 169 223.50Q150 217 144 199Q138 181 138 141Q138 105 145 85.50Q152 66 170 57.50Q188 49 224 49L242 49M103 680L212 680L302 553L228 553L103 680Z"  horiz-adv-x="538" vert-adv-y="1000"  />

      
      <glyph glyph-name="uni1EA3" unicode="&#x1EA3;" d="M227-10Q158-10 120.50 3Q83 16 66.50 49Q50 82 50 144Q50 199 65.50 229.50Q81 260 118.50 273Q156 286 225 286L370 286L370 363Q370 390 359.50 404.50Q349 419 324.50 425Q300 431 253 431Q178 431 87 419L87 485Q186 494 266 494Q350 494 390 481.50Q430 469 445 438Q460 407 460 342L460 0L373 0L373 46Q362-10 227-10M242 49Q291 49 325 56Q370 65 370 98L370 230L231 230Q188 230 169 223.50Q150 217 144 199Q138 181 138 141Q138 105 145 85.50Q152 66 170 57.50Q188 49 224 49L242 49M240 581Q240 596 245 603Q250 610 260 618Q273 627 277 637Q281 647 281 664Q281 680 271 685.50Q261 691 237 691Q223 691 211.50 688Q200 685 197 684L197 739Q207 743 216.50 744.50Q226 746 244 746Q293 746 316.50 724.50Q340 703 340 667Q340 650 335 633.50Q330 617 321 610Q307 599 301 592Q295 585 295 572L240 572L240 581Z"  horiz-adv-x="538" vert-adv-y="1000"  />

      
      <glyph glyph-name="uni0101" unicode="&#x0101;" d="M160 649L378 649L378 590L160 590L160 649M227-10Q158-10 120.50 3Q83 16 66.50 49Q50 82 50 144Q50 199 65.50 229.50Q81 260 118.50 273Q156 286 225 286L370 286L370 363Q370 390 359.50 404.50Q349 419 324.50 425Q300 431 253 431Q178 431 87 419L87 485Q186 494 266 494Q350 494 390 481.50Q430 469 445 438Q460 407 460 342L460 0L373 0L373 46Q362-10 227-10M242 49Q291 49 325 56Q370 65 370 98L370 230L231 230Q188 230 169 223.50Q150 217 144 199Q138 181 138 141Q138 105 145 85.50Q152 66 170 57.50Q188 49 224 49L242 49Z"  horiz-adv-x="538" vert-adv-y="1000"  />

      
      <glyph glyph-name="uni0105" unicode="&#x0105;" d="M436-186Q385-186 361-167Q337-148 337-106Q337-56 373 0L373 46Q362-10 227-10Q158-10 120.50 3Q83 16 66.50 49Q50 82 50 144Q50 199 65.50 229.50Q81 260 118.50 273Q156 286 225 286L370 286L370 363Q370 390 359.50 404.50Q349 419 324.50 425Q300 431 253 431Q178 431 87 419L87 485Q186 494 266 494Q350 494 390 481.50Q430 469 445 438Q460 407 460 342L460 0Q416-49 416-97Q416-130 455-130Q465-130 486-123L486-176Q466-186 436-186M242 47Q291 47 325 54Q370 63 370 96L370 230L231 230Q188 230 169 223.50Q150 217 144 199Q138 181 138 141Q138 105 145 85Q152 65 170.50 56Q189 47 224 47L242 47Z"  horiz-adv-x="538" vert-adv-y="1000"  />

      
      <glyph glyph-name="unie5" unicode="&#xe5;" d="M268 553Q231 553 212 555.50Q193 558 173 567Q153 576 144 596Q135 616 135 651L135 663Q135 700 144 721.50Q153 743 173 753Q193 762 212 764.50Q231 767 268 767Q298 767 314.50 765.50Q331 764 349 759Q368 753 378 742.50Q388 732 395 712Q402 694 402 663L402 651Q402 616 393.50 596Q385 576 365 567Q345 558 325.50 555.50Q306 553 268 553M268 595Q298 595 312.50 598Q327 601 333 611.50Q339 622 339 644L339 671Q339 695 333 706.50Q327 718 312.50 721.50Q298 725 268 725Q238 725 224 721.50Q210 718 204 706.50Q198 695 198 671L198 644Q198 622 204 611.50Q210 601 224 598Q238 595 268 595M227-10Q158-10 120.50 3Q83 16 66.50 49Q50 82 50 144Q50 199 65.50 229.50Q81 260 118.50 273Q156 286 225 286L370 286L370 363Q370 390 359.50 404.50Q349 419 324.50 425Q300 431 253 431Q178 431 87 419L87 485Q186 494 266 494Q350 494 390 481.50Q430 469 445 438Q460 407 460 342L460 0L373 0L373 46Q362-10 227-10M242 49Q291 49 325 56Q370 65 370 98L370 230L231 230Q188 230 169 223.50Q150 217 144 199Q138 181 138 141Q138 105 145 85.50Q152 66 170 57.50Q188 49 224 49L242 49Z"  horiz-adv-x="538" vert-adv-y="1000"  />

      
      <glyph glyph-name="unie3" unicode="&#xe3;" d="M227-10Q158-10 120.50 3Q83 16 66.50 49Q50 82 50 144Q50 199 65.50 229.50Q81 260 118.50 273Q156 286 225 286L370 286L370 363Q370 390 359.50 404.50Q349 419 324.50 425Q300 431 253 431Q178 431 87 419L87 485Q186 494 266 494Q350 494 390 481.50Q430 469 445 438Q460 407 460 342L460 0L373 0L373 46Q362-10 227-10M242 49Q291 49 325 56Q370 65 370 98L370 230L231 230Q188 230 169 223.50Q150 217 144 199Q138 181 138 141Q138 105 145 85.50Q152 66 170 57.50Q188 49 224 49L242 49M132 576Q139 603 160 623.50Q181 644 214 644Q237 644 276 629Q313 614 330 614Q345 614 358 622Q371 630 377 646L408 628Q400 600 377 578Q354 556 321 556Q298 556 256 573Q217 589 205 589Q176 589 163 556L132 576Z"  horiz-adv-x="538" vert-adv-y="1000"  />

      
      <glyph glyph-name="unie6" unicode="&#xe6;" d="M230-10Q158-10 120 2.50Q82 15 66 46.50Q50 78 50 140Q50 198 65 229Q80 260 117 273Q154 286 225 286L375 286L375 361Q375 399 349.50 415Q324 431 261 431Q153 431 87 414L87 480Q165 494 273 494Q391 494 431 459Q481 494 584 494Q690 494 735.50 457.50Q781 421 781 329L781 222L466 222L466 149Q466 99 499 77Q532 55 604 55Q668 55 762 79L762 10Q668-10 589-10Q462-10 408 47Q395-10 230-10M691 281L691 357Q691 402 667 418Q643 434 580 434Q519 434 492.50 417.50Q466 401 466 357L466 281L691 281M234 47Q258 47 276 48Q294 49 314 52Q335 55 346.50 61Q358 67 367 79Q375 92 375 109L375 230L231 230Q188 230 169 223.50Q150 217 144 199Q138 181 138 141Q138 102 145 83Q152 64 172 55.50Q192 47 234 47Z"  horiz-adv-x="840" vert-adv-y="1000"  />

      
      <glyph glyph-name="uni62" unicode="&#x62;" d="M294-10Q240-10 207.50-4.50Q175 1 143 16Q78 47 78 158L78 700L168 700L168 555L168 498Q167 472 167 440Q172 463 209 479Q247 494 319 494Q519 494 519 357L519 158Q519 115 506.50 83Q494 51 474 33Q456 16 424.50 6Q393-4 362-7Q334-10 294-10M296 49Q348 49 375.50 56.50Q403 64 415 84Q427 104 427 145L427 335Q427 376 415 396.50Q403 417 375.50 423.50Q348 430 295 430Q246 430 219 422Q192 414 180 393.50Q168 373 168 335L168 145Q168 104 179.50 84Q191 64 218 56.50Q245 49 296 49Z"  horiz-adv-x="579" vert-adv-y="1000"  />

      
      <glyph glyph-name="uni63" unicode="&#x63;" d="M273-10Q223-10 200.50-8Q178-6 149 2Q118 10 101 26Q84 42 72 73Q60 103 60 148L60 326Q60 407 91 442Q108 462 125.50 472.50Q143 483 171 487Q199 491 221 492.50Q243 494 283 494Q352 494 421 479L421 413Q341 433 272 433Q220 433 195.50 425.50Q171 418 161.50 398.50Q152 379 152 339L152 141Q152 104 162.50 86Q173 68 200.50 60.50Q228 53 282 53Q355 53 428 72L428 4Q360-10 273-10Z"  horiz-adv-x="464" vert-adv-y="1000"  />

      
      <glyph glyph-name="uni0107" unicode="&#x0107;" d="M299 680L408 680L283 553L209 553L299 680M273-10Q223-10 200.50-8Q178-6 149 2Q118 10 101 26Q84 42 72 73Q60 103 60 148L60 326Q60 407 91 442Q108 462 125.50 472.50Q143 483 171 487Q199 491 221 492.50Q243 494 283 494Q352 494 421 479L421 413Q341 433 272 433Q220 433 195.50 425.50Q171 418 161.50 398.50Q152 379 152 339L152 141Q152 104 162.50 86Q173 68 200.50 60.50Q228 53 282 53Q355 53 428 72L428 4Q360-10 273-10Z"  horiz-adv-x="464" vert-adv-y="1000"  />

      
      <glyph glyph-name="uni010D" unicode="&#x010D;" d="M145 680L203 680L266 593L328 680L386 680L320 553L213 553L145 680M273-10Q223-10 200.50-8Q178-6 149 2Q118 10 101 26Q84 42 72 73Q60 103 60 148L60 326Q60 407 91 442Q108 462 125.50 472.50Q143 483 171 487Q199 491 221 492.50Q243 494 283 494Q352 494 421 479L421 413Q341 433 272 433Q220 433 195.50 425.50Q171 418 161.50 398.50Q152 379 152 339L152 141Q152 104 162.50 86Q173 68 200.50 60.50Q228 53 282 53Q355 53 428 72L428 4Q360-10 273-10Z"  horiz-adv-x="464" vert-adv-y="1000"  />

      
      <glyph glyph-name="unie7" unicode="&#xe7;" d="M263-220Q213-220 182-201L203-156Q234-173 261-173Q308-173 308-133Q308-114 286-103Q264-92 230-92L197-92Q221-51 241-10Q204-9 181-5.50Q158-2 134 7Q109 16 94 32.50Q79 49 70 78Q60 105 60 148L60 326Q60 407 91 442Q108 462 125.50 472.50Q143 483 171 487Q199 491 221 492.50Q243 494 283 494Q352 494 421 479L421 413Q341 433 272 433Q218 433 193.50 426.50Q169 420 160.50 401Q152 382 152 339L152 139Q152 102 162.50 84.50Q173 67 200 60Q227 53 282 53Q355 53 428 72L428 4Q363-8 304-9L283-52Q322-53 349-73.50Q376-94 376-130Q376-172 343.50-196Q311-220 263-220Z"  horiz-adv-x="464" vert-adv-y="1000"  />

      
      <glyph glyph-name="uni0109" unicode="&#x0109;" d="M220 680L327 680L393 553L335 553L273 640L210 553L152 553L220 680M273-10Q223-10 200.50-8Q178-6 149 2Q118 10 101 26Q84 42 72 73Q60 103 60 148L60 326Q60 407 91 442Q108 462 125.50 472.50Q143 483 171 487Q199 491 221 492.50Q243 494 283 494Q352 494 421 479L421 413Q341 433 272 433Q220 433 195.50 425.50Q171 418 161.50 398.50Q152 379 152 339L152 141Q152 104 162.50 86Q173 68 200.50 60.50Q228 53 282 53Q355 53 428 72L428 4Q360-10 273-10Z"  horiz-adv-x="464" vert-adv-y="1000"  />

      
      <glyph glyph-name="uni010B" unicode="&#x010B;" d="M226 666L316 666L316 568L226 568L226 666M273-10Q223-10 200.50-8Q178-6 149 2Q118 10 101 26Q84 42 72 73Q60 103 60 148L60 326Q60 407 91 442Q108 462 125.50 472.50Q143 483 171 487Q199 491 221 492.50Q243 494 283 494Q352 494 421 479L421 413Q341 433 272 433Q220 433 195.50 425.50Q171 418 161.50 398.50Q152 379 152 339L152 141Q152 104 162.50 86Q173 68 200.50 60.50Q228 53 282 53Q355 53 428 72L428 4Q360-10 273-10Z"  horiz-adv-x="464" vert-adv-y="1000"  />

      
      <glyph glyph-name="uni64" unicode="&#x64;" d="M251-10Q179-10 138 4.50Q97 19 78.50 52Q60 85 60 144L60 357Q60 430 105.50 462Q151 494 256 494Q319 494 364.50 478Q410 462 411 432L413 432L411 555L411 700L501 700L501 0L413 0L413 57Q413 30 370 11Q327-10 251-10M270 52Q345 52 378 69Q411 86 411 127L411 366Q411 431 278 431Q198 431 174 419Q149 407 149 366L149 127Q149 86 176.50 69Q204 52 270 52Z"  horiz-adv-x="571" vert-adv-y="1000"  />

      
      <glyph glyph-name="unif0" unicode="&#xf0;" d="M283-10Q227-10 199.50-7.50Q172-5 143 3Q113 12 97.50 28.50Q82 45 72 77Q62 106 62 153L62 321Q62 408 98 451Q113 468 142 478Q171 488 205 491Q235 494 283 494Q344 494 376 490Q343 552 305 599L189 565L189 622L265 645Q254 658 212 700L318 700L349 670L450 700L450 643L389 625Q504 486 504 321L504 153Q504 69 469 29Q454 13 424.50 4Q395-5 362-8Q324-10 283-10M283 48Q337 48 363.50 54.50Q390 61 402 80Q414 99 414 140L414 336Q414 381 403 402Q392 423 365.50 429.50Q339 436 283 436Q227 436 200.50 429.50Q174 423 163 402Q152 381 152 336L152 140Q152 99 164 80Q176 61 202.50 54.50Q229 48 283 48Z"  horiz-adv-x="568" vert-adv-y="1000"  />

      
      <glyph glyph-name="uni010F" unicode="&#x010F;" d="M251-10Q179-10 138 4.50Q97 19 78.50 52Q60 85 60 144L60 357Q60 430 105.50 462Q151 494 256 494Q319 494 364.50 478Q410 462 411 432L413 432L411 555L411 693L501 693L501 0L413 0L413 57Q413 30 370 11Q327-10 251-10M609 679L703 679L620 529L563 529L609 679M270 52Q345 52 378 69Q411 86 411 127L411 366Q411 431 278 431Q198 431 174 419Q149 407 149 366L149 127Q149 86 176.50 69Q204 52 270 52Z"  horiz-adv-x="605" vert-adv-y="1000"  />

      
      <glyph glyph-name="uni0111" unicode="&#x0111;" d="M560 553L501 553L501 0L413 0L413 57Q413 30 370 11Q327-10 251-10Q179-10 138 4.50Q97 19 78.50 52Q60 85 60 144L60 357Q60 430 105.50 462Q151 494 256 494Q319 494 364.50 478Q410 462 411 432L413 432L411 553L301 553L301 605L411 605L411 700L501 700L501 605L560 605L560 553M411 366Q411 431 278 431Q198 431 174 419Q149 407 149 366L149 127Q149 86 176.50 69Q204 52 270 52Q345 52 378 69Q411 86 411 127L411 366Z"  horiz-adv-x="571" vert-adv-y="1000"  />

      
      <glyph glyph-name="uni65" unicode="&#x65;" d="M282-10Q60-10 60 138L60 329Q60 417 110.50 455.50Q161 494 274 494Q381 494 428.50 457Q476 420 476 329L476 222L151 222L151 149Q151 99 186 77Q221 55 294 55Q363 55 457 79L457 10Q365-10 282-10M386 281L386 357Q386 401 359.50 417.50Q333 434 269 434Q207 434 179 417.50Q151 401 151 357L151 281L386 281Z"  horiz-adv-x="535" vert-adv-y="1000"  />

      
      <glyph glyph-name="unie9" unicode="&#xe9;" d="M282-10Q60-10 60 138L60 329Q60 417 110.50 455.50Q161 494 274 494Q381 494 428.50 457Q476 420 476 329L476 222L151 222L151 149Q151 99 186 77Q221 55 294 55Q363 55 457 79L457 10Q365-10 282-10M386 281L386 357Q386 401 359.50 417.50Q333 434 269 434Q207 434 179 417.50Q151 401 151 357L151 281L386 281M308 680L417 680L292 553L218 553L308 680Z"  horiz-adv-x="535" vert-adv-y="1000"  />

      
      <glyph glyph-name="uni0115" unicode="&#x0115;" d="M278 553Q225 553 193.50 587.50Q162 622 160 680L214 680Q220 612 278 612Q336 612 342 680L396 680Q395 623 363 588Q331 553 278 553M282-10Q60-10 60 138L60 329Q60 417 110.50 455.50Q161 494 274 494Q381 494 428.50 457Q476 420 476 329L476 222L151 222L151 149Q151 99 186 77Q221 55 294 55Q363 55 457 79L457 10Q365-10 282-10M386 281L386 357Q386 401 359.50 417.50Q333 434 269 434Q207 434 179 417.50Q151 401 151 357L151 281L386 281Z"  horiz-adv-x="535" vert-adv-y="1000"  />

      
      <glyph glyph-name="uni011B" unicode="&#x011B;" d="M150 680L208 680L271 593L333 680L391 680L325 553L218 553L150 680M282-10Q60-10 60 138L60 329Q60 417 110.50 455.50Q161 494 274 494Q381 494 428.50 457Q476 420 476 329L476 222L151 222L151 149Q151 99 186 77Q221 55 294 55Q363 55 457 79L457 10Q365-10 282-10M386 281L386 357Q386 401 359.50 417.50Q333 434 269 434Q207 434 179 417.50Q151 401 151 357L151 281L386 281Z"  horiz-adv-x="535" vert-adv-y="1000"  />

      
      <glyph glyph-name="uniea" unicode="&#xea;" d="M282-10Q60-10 60 138L60 329Q60 417 110.50 455.50Q161 494 274 494Q381 494 428.50 457Q476 420 476 329L476 222L151 222L151 149Q151 99 186 77Q221 55 294 55Q363 55 457 79L457 10Q365-10 282-10M386 281L386 357Q386 401 359.50 417.50Q333 434 269 434Q207 434 179 417.50Q151 401 151 357L151 281L386 281M215 680L322 680L388 553L330 553L268 640L205 553L147 553L215 680Z"  horiz-adv-x="535" vert-adv-y="1000"  />

      
      <glyph glyph-name="uni1EBF" unicode="&#x1EBF;" d="M412 722L521 722L446 626L372 626L412 722M215 680L322 680L388 553L330 553L268 640L205 553L147 553L215 680M282-10Q60-10 60 138L60 329Q60 417 110.50 455.50Q161 494 274 494Q381 494 428.50 457Q476 420 476 329L476 222L151 222L151 149Q151 99 186 77Q221 55 294 55Q363 55 457 79L457 10Q365-10 282-10M386 281L386 357Q386 401 359.50 417.50Q333 434 269 434Q207 434 179 417.50Q151 401 151 357L151 281L386 281Z"  horiz-adv-x="535" vert-adv-y="1000"  />

      
      <glyph glyph-name="uni1EC7" unicode="&#x1EC7;" d="M282-10Q60-10 60 138L60 329Q60 417 110.50 455.50Q161 494 274 494Q381 494 428.50 457Q476 420 476 329L476 222L151 222L151 149Q151 99 186 77Q221 55 294 55Q363 55 457 79L457 10Q365-10 282-10M386 281L386 357Q386 401 359.50 417.50Q333 434 269 434Q207 434 179 417.50Q151 401 151 357L151 281L386 281M220-62L315-62L315-151L220-151L220-62M215 680L322 680L388 553L330 553L268 640L205 553L147 553L215 680Z"  horiz-adv-x="535" vert-adv-y="1000"  />

      
      <glyph glyph-name="uni1EC1" unicode="&#x1EC1;" d="M338 742L447 742L478 646L404 646L338 742M215 680L322 680L388 553L330 553L268 640L205 553L147 553L215 680M282-10Q60-10 60 138L60 329Q60 417 110.50 455.50Q161 494 274 494Q381 494 428.50 457Q476 420 476 329L476 222L151 222L151 149Q151 99 186 77Q221 55 294 55Q363 55 457 79L457 10Q365-10 282-10M386 281L386 357Q386 401 359.50 417.50Q333 434 269 434Q207 434 179 417.50Q151 401 151 357L151 281L386 281Z"  horiz-adv-x="535" vert-adv-y="1000"  />

      
      <glyph glyph-name="uni1EC3" unicode="&#x1EC3;" d="M282-10Q60-10 60 138L60 329Q60 417 110.50 455.50Q161 494 274 494Q381 494 428.50 457Q476 420 476 329L476 222L151 222L151 149Q151 99 186 77Q221 55 294 55Q363 55 457 79L457 10Q365-10 282-10M386 281L386 357Q386 401 359.50 417.50Q333 434 269 434Q207 434 179 417.50Q151 401 151 357L151 281L386 281M215 680L322 680L388 553L330 553L268 640L205 553L147 553L215 680M386 637Q386 652 391 659Q396 666 406 674Q419 683 423 693Q427 703 427 720Q427 736 417 741.50Q407 747 383 747Q369 747 357.50 744Q346 741 343 740L343 795Q353 799 362.50 800.50Q372 802 390 802Q439 802 462.50 780.50Q486 759 486 723Q486 706 481 689.50Q476 673 467 666Q453 655 447 648Q441 641 441 628L386 628L386 637Z"  horiz-adv-x="535" vert-adv-y="1000"  />

      
      <glyph glyph-name="uni1EC5" unicode="&#x1EC5;" d="M282-10Q60-10 60 138L60 329Q60 417 110.50 455.50Q161 494 274 494Q381 494 428.50 457Q476 420 476 329L476 222L151 222L151 149Q151 99 186 77Q221 55 294 55Q363 55 457 79L457 10Q365-10 282-10M386 281L386 357Q386 401 359.50 417.50Q333 434 269 434Q207 434 179 417.50Q151 401 151 357L151 281L386 281M215 680L322 680L388 553L330 553L268 640L205 553L147 553L215 680M131 724Q138 751 159 771.50Q180 792 213 792Q236 792 275 777Q312 762 329 762Q344 762 357 770Q370 778 376 794L407 776Q399 748 376 726Q353 704 320 704Q297 704 255 721Q216 737 204 737Q175 737 162 704L131 724Z"  horiz-adv-x="535" vert-adv-y="1000"  />

      
      <glyph glyph-name="unieb" unicode="&#xeb;" d="M130 659L220 659L220 565L130 565L130 659M300 659L390 659L390 565L300 565L300 659M282-10Q60-10 60 138L60 329Q60 417 110.50 455.50Q161 494 274 494Q381 494 428.50 457Q476 420 476 329L476 222L151 222L151 149Q151 99 186 77Q221 55 294 55Q363 55 457 79L457 10Q365-10 282-10M386 281L386 357Q386 401 359.50 417.50Q333 434 269 434Q207 434 179 417.50Q151 401 151 357L151 281L386 281Z"  horiz-adv-x="535" vert-adv-y="1000"  />

      
      <glyph glyph-name="uni0117" unicode="&#x0117;" d="M226 666L316 666L316 568L226 568L226 666M282-10Q60-10 60 138L60 329Q60 417 110.50 455.50Q161 494 274 494Q381 494 428.50 457Q476 420 476 329L476 222L151 222L151 149Q151 99 186 77Q221 55 294 55Q363 55 457 79L457 10Q365-10 282-10M386 281L386 357Q386 401 359.50 417.50Q333 434 269 434Q207 434 179 417.50Q151 401 151 357L151 281L386 281Z"  horiz-adv-x="535" vert-adv-y="1000"  />

      
      <glyph glyph-name="uni1EB9" unicode="&#x1EB9;" d="M282-10Q60-10 60 138L60 329Q60 417 110.50 455.50Q161 494 274 494Q381 494 428.50 457Q476 420 476 329L476 222L151 222L151 149Q151 99 186 77Q221 55 294 55Q363 55 457 79L457 10Q365-10 282-10M386 281L386 357Q386 401 359.50 417.50Q333 434 269 434Q207 434 179 417.50Q151 401 151 357L151 281L386 281M220-62L315-62L315-151L220-151L220-62Z"  horiz-adv-x="535" vert-adv-y="1000"  />

      
      <glyph glyph-name="unie8" unicode="&#xe8;" d="M282-10Q60-10 60 138L60 329Q60 417 110.50 455.50Q161 494 274 494Q381 494 428.50 457Q476 420 476 329L476 222L151 222L151 149Q151 99 186 77Q221 55 294 55Q363 55 457 79L457 10Q365-10 282-10M386 281L386 357Q386 401 359.50 417.50Q333 434 269 434Q207 434 179 417.50Q151 401 151 357L151 281L386 281M102 680L211 680L301 553L227 553L102 680Z"  horiz-adv-x="535" vert-adv-y="1000"  />

      
      <glyph glyph-name="uni1EBB" unicode="&#x1EBB;" d="M282-10Q60-10 60 138L60 329Q60 417 110.50 455.50Q161 494 274 494Q381 494 428.50 457Q476 420 476 329L476 222L151 222L151 149Q151 99 186 77Q221 55 294 55Q363 55 457 79L457 10Q365-10 282-10M386 281L386 357Q386 401 359.50 417.50Q333 434 269 434Q207 434 179 417.50Q151 401 151 357L151 281L386 281M239 581Q239 596 244 603Q249 610 259 618Q272 627 276 637Q280 647 280 664Q280 680 270 685.50Q260 691 236 691Q222 691 210.50 688Q199 685 196 684L196 739Q206 743 215.50 744.50Q225 746 243 746Q292 746 315.50 724.50Q339 703 339 667Q339 650 334 633.50Q329 617 320 610Q306 599 300 592Q294 585 294 572L239 572L239 581Z"  horiz-adv-x="535" vert-adv-y="1000"  />

      
      <glyph glyph-name="uni0113" unicode="&#x0113;" d="M154 647L395 647L395 584L154 584L154 647M282-10Q60-10 60 138L60 329Q60 417 110.50 455.50Q161 494 274 494Q381 494 428.50 457Q476 420 476 329L476 222L151 222L151 149Q151 99 186 77Q221 55 294 55Q363 55 457 79L457 10Q365-10 282-10M386 281L386 357Q386 401 359.50 417.50Q333 434 269 434Q207 434 179 417.50Q151 401 151 357L151 281L386 281Z"  horiz-adv-x="535" vert-adv-y="1000"  />

      
      <glyph glyph-name="uni0119" unicode="&#x0119;" d="M353-186Q303-186 278.50-167Q254-148 254-106Q254-59 283-10L270-10Q173-10 116.50 27Q60 64 60 138L60 329Q60 417 110.50 455.50Q161 494 274 494Q381 494 428.50 457Q476 420 476 329L476 222L151 222L151 149Q151 99 186.50 77Q222 55 298 55Q363 55 457 79L457 10Q407-1 361-6Q333-52 333-97Q333-130 372-130Q382-130 403-123L403-176Q383-186 353-186M386 281L386 357Q386 400 360 417Q334 434 272 434Q207 434 179 417.50Q151 401 151 357L151 281L386 281Z"  horiz-adv-x="535" vert-adv-y="1000"  />

      
      <glyph glyph-name="uni1EBD" unicode="&#x1EBD;" d="M282-10Q60-10 60 138L60 329Q60 417 110.50 455.50Q161 494 274 494Q381 494 428.50 457Q476 420 476 329L476 222L151 222L151 149Q151 99 186 77Q221 55 294 55Q363 55 457 79L457 10Q365-10 282-10M386 281L386 357Q386 401 359.50 417.50Q333 434 269 434Q207 434 179 417.50Q151 401 151 357L151 281L386 281M131 576Q138 603 159 623.50Q180 644 213 644Q236 644 275 629Q312 614 329 614Q344 614 357 622Q370 630 376 646L407 628Q399 600 376 578Q353 556 320 556Q297 556 255 573Q216 589 204 589Q175 589 162 556L131 576Z"  horiz-adv-x="535" vert-adv-y="1000"  />

      
      <glyph glyph-name="uni66" unicode="&#x66;" d="M121 425L10 425L10 484L121 484L121 562Q121 641 165.50 675.50Q210 710 301 710Q335 710 382 705L382 646Q344 651 304 651Q254 651 232.50 633Q211 615 211 568L211 484L372 484L372 425L211 425L211 0L121 0L121 425Z"  horiz-adv-x="380" vert-adv-y="1000"  />

      
      <glyph glyph-name="uni67" unicode="&#x67;" d="M261-220Q162-220 94-209L94-145Q214-159 269-159Q338-159 369.50-137Q401-115 401-64L401 52Q399 20 357.50 5Q316-10 253-10Q178-10 136.50 4Q95 18 77.50 50Q60 82 60 137L60 334Q60 420 106.50 457Q153 494 259 494Q385 494 407 437L407 484L491 484L491-46Q491-113 466-151Q441-189 391-204.50Q341-220 261-220M272 50Q343 50 372 67Q401 84 401 131L401 350Q401 383 390.50 400Q380 417 352 424.50Q324 432 270 432Q219 432 193.50 425Q168 418 158.50 400.50Q149 383 149 350L149 131Q149 97 159 80Q169 63 195 56.50Q221 50 272 50Z"  horiz-adv-x="569" vert-adv-y="1000"  />

      
      <glyph glyph-name="uni011F" unicode="&#x011F;" d="M265 553Q212 553 180.50 587.50Q149 622 147 680L201 680Q207 612 265 612Q323 612 329 680L383 680Q382 623 350 588Q318 553 265 553M261-220Q162-220 94-209L94-145Q214-159 269-159Q338-159 369.50-137Q401-115 401-64L401 52Q399 20 357.50 5Q316-10 253-10Q178-10 136.50 4Q95 18 77.50 50Q60 82 60 137L60 334Q60 420 106.50 457Q153 494 259 494Q385 494 407 437L407 484L491 484L491-46Q491-113 466-151Q441-189 391-204.50Q341-220 261-220M272 50Q343 50 372 67Q401 84 401 131L401 350Q401 383 390.50 400Q380 417 352 424.50Q324 432 270 432Q219 432 193.50 425Q168 418 158.50 400.50Q149 383 149 350L149 131Q149 97 159 80Q169 63 195 56.50Q221 50 272 50Z"  horiz-adv-x="569" vert-adv-y="1000"  />

      
      <glyph glyph-name="uni011D" unicode="&#x011D;" d="M226 680L333 680L399 553L341 553L279 640L216 553L158 553L226 680M261-220Q162-220 94-209L94-145Q214-159 269-159Q338-159 369.50-137Q401-115 401-64L401 52Q399 20 357.50 5Q316-10 253-10Q178-10 136.50 4Q95 18 77.50 50Q60 82 60 137L60 334Q60 420 106.50 457Q153 494 259 494Q385 494 407 437L407 484L491 484L491-46Q491-113 466-151Q441-189 391-204.50Q341-220 261-220M272 50Q343 50 372 67Q401 84 401 131L401 350Q401 383 390.50 400Q380 417 352 424.50Q324 432 270 432Q219 432 193.50 425Q168 418 158.50 400.50Q149 383 149 350L149 131Q149 97 159 80Q169 63 195 56.50Q221 50 272 50Z"  horiz-adv-x="569" vert-adv-y="1000"  />

      
      <glyph glyph-name="uni0123" unicode="&#x0123;" d="M288 689L382 689L299 539L242 539L288 689M261-190Q162-190 94-179L94-115Q214-129 269-129Q340-129 373.50-106.50Q407-84 407-34L407 52Q405 20 361 5Q317-10 253-10Q178-10 136.50 4Q95 18 77.50 50Q60 82 60 137L60 334Q60 420 106.50 457Q153 494 259 494Q385 494 407 437L407 484L491 484L491-16Q491-83 466-121Q441-159 391-174.50Q341-190 261-190M272 50Q343 50 372 67Q401 84 401 131L401 350Q401 383 390.50 400Q380 417 352 424.50Q324 432 270 432Q219 432 193.50 425Q168 418 158.50 400.50Q149 383 149 350L149 131Q149 97 159 80Q169 63 195 56.50Q221 50 272 50Z"  horiz-adv-x="569" vert-adv-y="1000"  />

      
      <glyph glyph-name="uni0121" unicode="&#x0121;" d="M232 666L322 666L322 568L232 568L232 666M261-220Q162-220 94-209L94-145Q214-159 269-159Q338-159 369.50-137Q401-115 401-64L401 52Q399 20 357.50 5Q316-10 253-10Q178-10 136.50 4Q95 18 77.50 50Q60 82 60 137L60 334Q60 420 106.50 457Q153 494 259 494Q385 494 407 437L407 484L491 484L491-46Q491-113 466-151Q441-189 391-204.50Q341-220 261-220M272 50Q343 50 372 67Q401 84 401 131L401 350Q401 383 390.50 400Q380 417 352 424.50Q324 432 270 432Q219 432 193.50 425Q168 418 158.50 400.50Q149 383 149 350L149 131Q149 97 159 80Q169 63 195 56.50Q221 50 272 50Z"  horiz-adv-x="569" vert-adv-y="1000"  />

      
      <glyph glyph-name="uni68" unicode="&#x68;" d="M78 700L168 700L168 425Q182 494 327 494Q420 494 457.50 460.50Q495 427 495 355L495 0L405 0L405 349Q405 368 402 380Q399 392 390 404Q370 429 301 429Q246 429 217.50 421.50Q189 414 178.50 397Q168 380 168 349L168 0L78 0L78 700Z"  horiz-adv-x="573" vert-adv-y="1000"  />

      
      <glyph glyph-name="uni0127" unicode="&#x0127;" d="M78 553L19 553L19 605L78 605L78 700L168 700L168 605L278 605L278 553L168 553L168 425Q182 494 327 494Q420 494 457.50 460.50Q495 427 495 355L495 0L405 0L405 349Q405 368 402 380Q399 392 390 404Q370 429 301 429Q246 429 217.50 421.50Q189 414 178.50 397Q168 380 168 349L168 0L78 0L78 553Z"  horiz-adv-x="573" vert-adv-y="1000"  />

      
      <glyph glyph-name="uni0125" unicode="&#x0125;" d="M78 860L185 860L251 733L193 733L131 820L68 733L10 733L78 860M78 700L168 700L168 425Q182 494 327 494Q420 494 457.50 460.50Q495 427 495 355L495 0L405 0L405 349Q405 368 402 380Q399 392 390 404Q370 429 301 429Q246 429 217.50 421.50Q189 414 178.50 397Q168 380 168 349L168 0L78 0L78 700Z"  horiz-adv-x="573" vert-adv-y="1000"  />

      
      <glyph glyph-name="uni69" unicode="&#x69;" d="M78 659L168 659L168 565L78 565L78 659M78 484L168 484L168 0L78 0L78 484Z"  horiz-adv-x="246" vert-adv-y="1000"  />

      
      <glyph glyph-name="uni0131" unicode="&#x0131;" d="M79 484L169 484L169 0L79 0L79 484Z"  horiz-adv-x="246" vert-adv-y="1000"  />

      
      <glyph glyph-name="unied" unicode="&#xed;" d="M79 484L169 484L169 0L79 0L79 484M163 680L272 680L147 553L73 553L163 680Z"  horiz-adv-x="246" vert-adv-y="1000"  />

      
      <glyph glyph-name="uni012D" unicode="&#x012D;" d="M124 553Q71 553 39.50 587.50Q8 622 6 680L60 680Q66 612 124 612Q182 612 188 680L242 680Q241 623 209 588Q177 553 124 553M79 484L169 484L169 0L79 0L79 484Z"  horiz-adv-x="246" vert-adv-y="1000"  />

      
      <glyph glyph-name="uniee" unicode="&#xee;" d="M75 680L182 680L248 553L190 553L128 640L65 553L7 553L75 680M79 484L169 484L169 0L79 0L79 484Z"  horiz-adv-x="246" vert-adv-y="1000"  />

      
      <glyph glyph-name="unief" unicode="&#xef;" d="M-5 659L85 659L85 565L-5 565L-5 659M165 659L255 659L255 565L165 565L165 659M79 484L169 484L169 0L79 0L79 484Z"  horiz-adv-x="246" vert-adv-y="1000"  />

      
      </font>
</defs>
</svg>
