<?xml version="1.0" encoding="utf-8"?>
<!-- Svg Vector Icons : http://www.onlinewebfonts.com/icon -->
<!DOCTYPE svg PUBLIC "-//W3C//DTD SVG 1.1//EN" "http://www.w3.org/Graphics/SVG/1.1/DTD/svg11.dtd">
<svg version="1.1" xmlns="http://www.w3.org/2000/svg" xmlns:xlink="http://www.w3.org/1999/xlink" x="0px" y="0px" viewBox="0 0 1000 1000" enable-background="new 0 0 1000 1000" xml:space="preserve" fill="#f39c12">
<metadata> Svg Vector Icons : http://www.onlinewebfonts.com/icon </metadata>
<g><path d="M500,990C229.4,990,10,770.6,10,500C10,229.4,229.4,10,500,10s490,219.4,490,490C990,770.6,770.6,990,500,990z M500,83.5C270,83.5,83.5,270,83.5,500C83.5,730,270,916.5,500,916.5c230,0,416.5-186.5,416.5-416.5C916.5,270,730,83.5,500,83.5z M724.6,580.7c-35.4,0-64.1-28.7-64.1-64.1s28.7-64.1,64.1-64.1c35.4,0,64.1,28.7,64.1,64.1S760,580.7,724.6,580.7z M500,580.7c-35.4,0-64.1-28.7-64.1-64.1s28.7-64.1,64.1-64.1c35.4,0,64.1,28.7,64.1,64.1S535.4,580.7,500,580.7z M275.4,580.7c-35.4,0-64.1-28.7-64.1-64.1s28.7-64.1,64.1-64.1s64.1,28.7,64.1,64.1S310.8,580.7,275.4,580.7z"/></g>
</svg>